BioRhyme-Light Extended.ufo
<glyph name="numbersign" format="1">
  <advance width="788"/>
  <unicode hex="0023"/>
  <outline>
    <contour>
      <point x="642" y="490" type="line"/>
      <point x="617" y="490" type="line"/>
      <point x="439" y="0" type="line"/>
      <point x="463" y="0" type="line"/>
    </contour>
    <contour>
      <point x="348" y="490" type="line"/>
      <point x="323" y="490" type="line"/>
      <point x="145" y="0" type="line"/>
      <point x="169" y="0" type="line"/>
    </contour>
    <contour>
      <point x="69" y="332" type="line"/>
      <point x="768" y="332" type="line"/>
      <point x="768" y="355" type="line"/>
      <point x="69" y="355" type="line"/>
    </contour>
    <contour>
      <point x="20" y="152" type="line"/>
      <point x="719" y="152" type="line"/>
      <point x="719" y="175" type="line"/>
      <point x="20" y="175" type="line"/>
    </contour>
  </outline>
</glyph>
<glyph name="seven" format="1">
  <advance width="688"/>
  <unicode hex="0037"/>
  <outline>
    <contour>
      <point x="201" y="4" type="line"/>
      <point x="217" y="-10" type="line"/>
      <point x="658" y="444" type="line"/>
      <point x="630" y="450" type="line"/>
    </contour>
    <contour>
      <point x="55" y="467" type="line"/>
      <point x="55" y="284" type="line"/>
      <point x="79" y="284" type="line"/>
      <point x="79" y="444" type="line"/>
      <point x="658" y="444" type="line"/>
      <point x="658" y="467" type="line"/>
    </contour>
  </outline>
</glyph>
<glyph name="colon" format="1">
  <advance width="246"/>
  <unicode hex="003A"/>
  <outline>
    <contour>
      <point x="155" y="302"/>
      <point x="172" y="316"/>
      <point x="172" y="334" type="curve"/>
      <point x="172" y="353"/>
      <point x="155" y="366"/>
      <point x="123" y="366" type="curve"/>
      <point x="92" y="366"/>
      <point x="74" y="353"/>
      <point x="74" y="334" type="curve"/>
      <point x="74" y="316"/>
      <point x="92" y="302"/>
      <point x="123" y="302" type="curve"/>
    </contour>
    <contour>
      <point x="155" y="-10"/>
      <point x="172" y="4"/>
      <point x="172" y="22" type="curve"/>
      <point x="172" y="41"/>
      <point x="155" y="54"/>
      <point x="123" y="54" type="curve"/>
      <point x="92" y="54"/>
      <point x="74" y="41"/>
      <point x="74" y="22" type="curve"/>
      <point x="74" y="4"/>
      <point x="92" y="-10"/>
      <point x="123" y="-10" type="curve"/>
    </contour>
  </outline>
</glyph>
<glyph name="equal" format="1">
  <advance width="637"/>
  <unicode hex="003D"/>
  <outline>
    <contour>
      <point x="70" y="347" type="line"/>
      <point x="70" y="324" type="line"/>
      <point x="567" y="324" type="line"/>
      <point x="567" y="347" type="line"/>
    </contour>
    <contour>
      <point x="70" y="146" type="line"/>
      <point x="70" y="123" type="line"/>
      <point x="567" y="123" type="line"/>
      <point x="567" y="146" type="line"/>
    </contour>
  </outline>
</glyph>
<glyph name="question" format="1">
  <advance width="523"/>
  <unicode hex="003F"/>
  <outline>
    <contour>
      <point x="234" y="134" type="line"/>
      <point x="220" y="162"/>
      <point x="207" y="182"/>
      <point x="207" y="210" type="curve" smooth="yes"/>
      <point x="207" y="248"/>
      <point x="277" y="264"/>
      <point x="345" y="288" type="curve" smooth="yes"/>
      <point x="410" y="311"/>
      <point x="474" y="342"/>
      <point x="474" y="408" type="curve" smooth="yes"/>
      <point x="474" y="488"/>
      <point x="386" y="529"/>
      <point x="286" y="529" type="curve" smooth="yes"/>
      <point x="189" y="529"/>
      <point x="114" y="506"/>
      <point x="42" y="478" type="curve"/>
      <point x="51" y="454" type="line"/>
      <point x="121" y="482"/>
      <point x="189" y="506"/>
      <point x="286" y="506" type="curve" smooth="yes"/>
      <point x="379" y="506"/>
      <point x="449" y="468"/>
      <point x="449" y="409" type="curve" smooth="yes"/>
      <point x="449" y="357"/>
      <point x="397" y="330"/>
      <point x="338" y="309" type="curve" smooth="yes"/>
      <point x="266" y="282"/>
      <point x="184" y="264"/>
      <point x="184" y="216" type="curve" smooth="yes"/>
      <point x="184" y="188"/>
      <point x="199" y="162"/>
      <point x="222" y="129" type="curve"/>
    </contour>
    <contour>
      <point x="277" y="-10"/>
      <point x="293" y="4"/>
      <point x="293" y="22" type="curve"/>
      <point x="293" y="41"/>
      <point x="277" y="54"/>
      <point x="244" y="54" type="curve"/>
      <point x="213" y="54"/>
      <point x="195" y="41"/>
      <point x="195" y="22" type="curve"/>
      <point x="195" y="4"/>
      <point x="213" y="-10"/>
      <point x="244" y="-10" type="curve"/>
    </contour>
  </outline>
</glyph>
<glyph name="F" format="1">
  <advance width="917"/>
  <unicode hex="0046"/>
  <outline>
    <contour>
      <point x="862" y="337" type="line"/>
      <point x="862" y="520" type="line"/>
      <point x="56" y="520" type="line"/>
      <point x="56" y="497" type="line"/>
      <point x="838" y="497" type="line"/>
      <point x="838" y="337" type="line"/>
    </contour>
    <contour>
      <point x="455" y="0" type="line"/>
      <point x="455" y="23" type="line"/>
      <point x="56" y="23" type="line"/>
      <point x="56" y="0" type="line"/>
    </contour>
    <contour>
      <point x="263" y="13" type="line"/>
      <point x="263" y="507" type="line"/>
      <point x="238" y="507" type="line"/>
      <point x="238" y="13" type="line"/>
    </contour>
    <contour>
      <point x="603" y="240" type="line"/>
      <point x="603" y="263" type="line"/>
      <point x="260" y="263" type="line"/>
      <point x="260" y="240" type="line"/>
    </contour>
    <contour>
      <point x="615" y="132" type="line"/>
      <point x="615" y="371" type="line"/>
      <point x="591" y="371" type="line"/>
      <point x="591" y="132" type="line"/>
    </contour>
    <contour>
      <point x="449" y="490" type="move" name="top"/>
    </contour>
    <contour>
      <point x="449" y="0" type="move" name="bottom"/>
    </contour>
  </outline>
</glyph>
<glyph name="O" format="1">
  <advance width="906"/>
  <unicode hex="004F"/>
  <outline>
    <contour>
      <point x="669" y="-10"/>
      <point x="836" y="88"/>
      <point x="836" y="260" type="curve"/>
      <point x="836" y="431"/>
      <point x="669" y="530"/>
      <point x="453" y="530" type="curve"/>
      <point x="237" y="530"/>
      <point x="70" y="431"/>
      <point x="70" y="260" type="curve"/>
      <point x="70" y="88"/>
      <point x="237" y="-10"/>
      <point x="453" y="-10" type="curve"/>
    </contour>
    <contour>
      <point x="247" y="13"/>
      <point x="95" y="106"/>
      <point x="95" y="260" type="curve"/>
      <point x="95" y="414"/>
      <point x="247" y="507"/>
      <point x="453" y="507" type="curve"/>
      <point x="658" y="507"/>
      <point x="811" y="414"/>
      <point x="811" y="260" type="curve"/>
      <point x="811" y="106"/>
      <point x="658" y="13"/>
      <point x="453" y="13" type="curve"/>
    </contour>
    <contour>
      <point x="453" y="-10" type="move" name="bottom"/>
    </contour>
    <contour>
      <point x="455" y="-8" type="move" name="ogonek"/>
    </contour>
    <contour>
      <point x="453" y="530" type="move" name="top"/>
    </contour>
    <contour>
      <point x="886" y="490" type="move" name="topright"/>
    </contour>
    <contour>
      <point x="453" y="245" type="move" name="center"/>
    </contour>
  </outline>
</glyph>
<glyph name="P" format="1">
  <advance width="934"/>
  <unicode hex="0050"/>
  <outline>
    <contour>
      <point x="694" y="213" type="line" smooth="yes"/>
      <point x="806" y="213"/>
      <point x="874" y="278"/>
      <point x="874" y="365" type="curve" smooth="yes"/>
      <point x="874" y="461"/>
      <point x="804" y="520"/>
      <point x="694" y="520" type="curve" smooth="yes"/>
      <point x="56" y="520" type="line"/>
      <point x="56" y="497" type="line"/>
      <point x="701" y="497" type="line" smooth="yes"/>
      <point x="790" y="497"/>
      <point x="849" y="445"/>
      <point x="849" y="365" type="curve" smooth="yes"/>
      <point x="849" y="287"/>
      <point x="787" y="236"/>
      <point x="701" y="236" type="curve" smooth="yes"/>
      <point x="251" y="236" type="line"/>
      <point x="251" y="213" type="line"/>
    </contour>
    <contour>
      <point x="455" y="0" type="line"/>
      <point x="455" y="23" type="line"/>
      <point x="56" y="23" type="line"/>
      <point x="56" y="0" type="line"/>
    </contour>
    <contour>
      <point x="263" y="13" type="line"/>
      <point x="263" y="507" type="line"/>
      <point x="238" y="507" type="line"/>
      <point x="238" y="13" type="line"/>
    </contour>
    <contour>
      <point x="462" y="520" type="move" name="top"/>
    </contour>
    <contour>
      <point x="462" y="0" type="move" name="bottom"/>
    </contour>
  </outline>
</glyph>
<glyph name="Q" format="1">
  <advance width="912"/>
  <unicode hex="0051"/>
  <outline>
    <contour>
      <point x="669" y="-10"/>
      <point x="836" y="88"/>
      <point x="836" y="260" type="curve"/>
      <point x="836" y="431"/>
      <point x="669" y="530"/>
      <point x="453" y="530" type="curve"/>
      <point x="237" y="530"/>
      <point x="70" y="431"/>
      <point x="70" y="260" type="curve"/>
      <point x="70" y="88"/>
      <point x="237" y="-10"/>
      <point x="453" y="-10" type="curve"/>
    </contour>
    <contour>
      <point x="823" y="-158"/>
      <point x="886" y="-99"/>
      <point x="897" y="-13" type="curve"/>
      <point x="874" y="-9" type="line"/>
      <point x="864" y="-87"/>
      <point x="808" y="-135"/>
      <point x="731" y="-135" type="curve" smooth="yes"/>
      <point x="653" y="-135"/>
      <point x="597" y="-80"/>
      <point x="528" y="2" type="curve" smooth="yes"/>
      <point x="510" y="23" type="line" smooth="yes"/>
      <point x="417" y="134"/>
      <point x="350" y="223"/>
      <point x="174" y="223" type="curve" smooth="yes"/>
      <point x="93" y="223" type="line"/>
      <point x="93" y="200" type="line"/>
      <point x="174" y="200" type="line" smooth="yes"/>
      <point x="336" y="200"/>
      <point x="404" y="113"/>
      <point x="485" y="17" type="curve" smooth="yes"/>
      <point x="498" y="1" type="line" smooth="yes"/>
      <point x="581" y="-99"/>
      <point x="639" y="-158"/>
      <point x="731" y="-158" type="curve" smooth="yes"/>
    </contour>
    <contour>
      <point x="247" y="13"/>
      <point x="95" y="106"/>
      <point x="95" y="260" type="curve"/>
      <point x="95" y="414"/>
      <point x="247" y="507"/>
      <point x="453" y="507" type="curve"/>
      <point x="658" y="507"/>
      <point x="811" y="414"/>
      <point x="811" y="260" type="curve"/>
      <point x="811" y="106"/>
      <point x="658" y="13"/>
      <point x="453" y="13" type="curve"/>
    </contour>
    <contour>
      <point x="451" y="530" type="move" name="top"/>
    </contour>
    <contour>
      <point x="451" y="-10" type="move" name="bottom"/>
    </contour>
  </outline>
</glyph>
<glyph name="S" format="1">
  <advance width="848"/>
  <unicode hex="0053"/>
  <outline>
    <contour>
      <point x="667" y="-10"/>
      <point x="771" y="34"/>
      <point x="771" y="124" type="curve" smooth="yes"/>
      <point x="771" y="218"/>
      <point x="673" y="249"/>
      <point x="434" y="268" type="curve" smooth="yes"/>
      <point x="211" y="286"/>
      <point x="136" y="316"/>
      <point x="136" y="386" type="curve" smooth="yes"/>
      <point x="136" y="468"/>
      <point x="227" y="507"/>
      <point x="366" y="507" type="curve" smooth="yes"/>
      <point x="533" y="507"/>
      <point x="644" y="444"/>
      <point x="730" y="344" type="curve"/>
      <point x="736" y="346" type="line"/>
      <point x="736" y="520" type="line"/>
      <point x="713" y="520" type="line"/>
      <point x="713" y="378" type="line"/>
      <point x="727" y="378" type="line"/>
      <point x="660" y="453"/>
      <point x="552" y="530"/>
      <point x="368" y="530" type="curve" smooth="yes"/>
      <point x="206" y="530"/>
      <point x="111" y="479"/>
      <point x="111" y="386" type="curve" smooth="yes"/>
      <point x="111" y="305"/>
      <point x="188" y="261"/>
      <point x="433" y="244" type="curve" smooth="yes"/>
      <point x="659" y="228"/>
      <point x="747" y="201"/>
      <point x="747" y="124" type="curve" smooth="yes"/>
      <point x="747" y="47"/>
      <point x="651" y="13"/>
      <point x="527" y="13" type="curve" smooth="yes"/>
      <point x="378" y="13"/>
      <point x="205" y="73"/>
      <point x="115" y="177" type="curve"/>
      <point x="109" y="175" type="line"/>
      <point x="109" y="0" type="line"/>
      <point x="132" y="0" type="line"/>
      <point x="132" y="140" type="line"/>
      <point x="117" y="140" type="line"/>
      <point x="190" y="65"/>
      <point x="354" y="-10"/>
      <point x="526" y="-10" type="curve" smooth="yes"/>
    </contour>
    <contour>
      <point x="444" y="530" type="move" name="top"/>
    </contour>
    <contour>
      <point x="464" y="-10" type="move" name="bottom"/>
    </contour>
  </outline>
</glyph>
<glyph name="V" format="1">
  <advance width="946"/>
  <unicode hex="0056"/>
  <outline>
    <contour>
      <point x="0" y="520" type="line"/>
      <point x="0" y="497" type="line"/>
      <point x="337" y="497" type="line"/>
      <point x="337" y="520" type="line"/>
    </contour>
    <contour>
      <point x="609" y="520" type="line"/>
      <point x="609" y="497" type="line"/>
      <point x="946" y="497" type="line"/>
      <point x="946" y="520" type="line"/>
    </contour>
    <contour>
      <point x="476" y="-10" type="line"/>
      <point x="792" y="507" type="line"/>
      <point x="763" y="507" type="line"/>
      <point x="474" y="28" type="line"/>
      <point x="186" y="507" type="line"/>
      <point x="155" y="507" type="line"/>
      <point x="470" y="-10" type="line"/>
    </contour>
    <contour>
      <point x="474" y="490" type="move" name="top"/>
    </contour>
    <contour>
      <point x="474" y="-10" type="move" name="bottom"/>
    </contour>
  </outline>
</glyph>
<glyph name="W" format="1">
  <advance width="1266"/>
  <unicode hex="0057"/>
  <outline>
    <contour>
      <point x="455" y="-10" type="line"/>
      <point x="789" y="507" type="line"/>
      <point x="762" y="507" type="line"/>
      <point x="454" y="28" type="line"/>
      <point x="186" y="507" type="line"/>
      <point x="157" y="507" type="line"/>
      <point x="448" y="-10" type="line"/>
    </contour>
    <contour>
      <point x="323" y="498" type="line"/>
      <point x="323" y="520" type="line"/>
      <point x="0" y="520" type="line"/>
      <point x="0" y="498" type="line"/>
    </contour>
    <contour>
      <point x="818" y="-10" type="line"/>
      <point x="1109" y="507" type="line"/>
      <point x="1084" y="507" type="line"/>
      <point x="815" y="28" type="line"/>
      <point x="507" y="507" type="line"/>
      <point x="479" y="507" type="line"/>
      <point x="811" y="-10" type="line"/>
    </contour>
    <contour>
      <point x="867" y="498" type="line"/>
      <point x="867" y="520" type="line"/>
      <point x="397" y="520" type="line"/>
      <point x="397" y="498" type="line"/>
    </contour>
    <contour>
      <point x="1266" y="498" type="line"/>
      <point x="1266" y="520" type="line"/>
      <point x="943" y="520" type="line"/>
      <point x="943" y="498" type="line"/>
    </contour>
    <contour>
      <point x="633" y="520" type="move" name="top"/>
    </contour>
    <contour>
      <point x="633" y="0" type="move" name="bottom"/>
    </contour>
  </outline>
</glyph>
<glyph name="Z" format="1">
  <advance width="843"/>
  <unicode hex="005A"/>
  <outline>
    <contour>
      <point x="753" y="0" type="line"/>
      <point x="753" y="183" type="line"/>
      <point x="728" y="183" type="line"/>
      <point x="728" y="23" type="line"/>
      <point x="167" y="23" type="line"/>
      <point x="137" y="20" type="line"/>
      <point x="137" y="21" type="line"/>
      <point x="167" y="32" type="line"/>
      <point x="749" y="507" type="line"/>
      <point x="749" y="520" type="line"/>
      <point x="95" y="520" type="line"/>
      <point x="95" y="337" type="line"/>
      <point x="120" y="337" type="line"/>
      <point x="120" y="497" type="line"/>
      <point x="680" y="497" type="line"/>
      <point x="710" y="500" type="line"/>
      <point x="710" y="499" type="line"/>
      <point x="680" y="488" type="line"/>
      <point x="98" y="13" type="line"/>
      <point x="98" y="0" type="line"/>
    </contour>
    <contour>
      <point x="424" y="520" type="move" name="top"/>
    </contour>
    <contour>
      <point x="424" y="0" type="move" name="bottom"/>
    </contour>
  </outline>
</glyph>
<glyph name="backslash" format="1">
  <advance width="417"/>
  <unicode hex="005C"/>
  <outline>
    <contour>
      <point x="396" y="-79" type="line"/>
      <point x="53" y="561" type="line"/>
      <point x="25" y="561" type="line"/>
      <point x="368" y="-79" type="line"/>
    </contour>
  </outline>
</glyph>
<glyph name="asciicircum" format="1">
  <advance width="457"/>
  <unicode hex="005E"/>
  <outline>
    <contour>
      <point x="232" y="616" type="line"/>
      <point x="225" y="594" type="line"/>
      <point x="380" y="325" type="line"/>
      <point x="407" y="325" type="line"/>
      <point x="235" y="616" type="line"/>
    </contour>
    <contour>
      <point x="232" y="616" type="line"/>
      <point x="50" y="325" type="line"/>
      <point x="77" y="325" type="line"/>
      <point x="242" y="594" type="line"/>
      <point x="235" y="616" type="line"/>
    </contour>
  </outline>
</glyph>
<glyph name="a" format="1">
  <advance width="797"/>
  <unicode hex="0061"/>
  <outline>
    <contour>
      <point x="102" y="287" type="line"/>
      <point x="204" y="319"/>
      <point x="301" y="344"/>
      <point x="404" y="344" type="curve" smooth="yes"/>
      <point x="549" y="344"/>
      <point x="612" y="281"/>
      <point x="612" y="197" type="curve" smooth="yes"/>
      <point x="612" y="93" type="line" smooth="yes"/>
      <point x="612" y="28"/>
      <point x="649" y="-10"/>
      <point x="700" y="-10" type="curve" smooth="yes"/>
      <point x="731" y="-10"/>
      <point x="758" y="2"/>
      <point x="782" y="19" type="curve"/>
      <point x="772" y="39" type="line"/>
      <point x="749" y="22"/>
      <point x="728" y="13"/>
      <point x="701" y="13" type="curve" smooth="yes"/>
      <point x="668" y="13"/>
      <point x="637" y="38"/>
      <point x="637" y="93" type="curve" smooth="yes"/>
      <point x="637" y="197" type="line" smooth="yes"/>
      <point x="637" y="297"/>
      <point x="562" y="367"/>
      <point x="404" y="367" type="curve" smooth="yes"/>
      <point x="305" y="367"/>
      <point x="203" y="346"/>
      <point x="94" y="310" type="curve"/>
    </contour>
    <contour>
      <point x="387" y="-10"/>
      <point x="514" y="20"/>
      <point x="623" y="76" type="curve"/>
      <point x="623" y="98" type="line"/>
      <point x="509" y="44"/>
      <point x="385" y="13"/>
      <point x="277" y="13" type="curve" smooth="yes"/>
      <point x="184" y="13"/>
      <point x="105" y="33"/>
      <point x="105" y="96" type="curve"/>
      <point x="105" y="162"/>
      <point x="197" y="183"/>
      <point x="321" y="183" type="curve" smooth="yes"/>
      <point x="424" y="183"/>
      <point x="536" y="168"/>
      <point x="623" y="153" type="curve"/>
      <point x="623" y="176" type="line"/>
      <point x="536" y="191"/>
      <point x="426" y="206"/>
      <point x="305" y="206" type="curve" smooth="yes"/>
      <point x="183" y="206"/>
      <point x="80" y="178"/>
      <point x="80" y="96" type="curve"/>
      <point x="80" y="16"/>
      <point x="156" y="-10"/>
      <point x="277" y="-10" type="curve" smooth="yes"/>
    </contour>
    <contour>
      <point x="782" y="19" type="move" name="ogonek"/>
    </contour>
    <contour>
      <point x="277" y="-10" type="move" name="bottom"/>
    </contour>
    <contour>
      <point x="374" y="367" type="move" name="top"/>
    </contour>
  </outline>
</glyph>
<glyph name="c" format="1">
  <advance width="768"/>
  <unicode hex="0063"/>
  <outline>
    <contour>
      <point x="500" y="-9"/>
      <point x="599" y="33"/>
      <point x="678" y="96" type="curve"/>
      <point x="663" y="114" type="line"/>
      <point x="589" y="56"/>
      <point x="489" y="13"/>
      <point x="365" y="14" type="curve" smooth="yes"/>
      <point x="218" y="15"/>
      <point x="105" y="78"/>
      <point x="105" y="172" type="curve" smooth="yes"/>
      <point x="105" y="286"/>
      <point x="242" y="345"/>
      <point x="375" y="344" type="curve" smooth="yes"/>
      <point x="484" y="344"/>
      <point x="599" y="306"/>
      <point x="666" y="220" type="curve"/>
      <point x="672" y="221" type="line"/>
      <point x="672" y="357" type="line"/>
      <point x="649" y="357" type="line"/>
      <point x="649" y="257" type="line"/>
      <point x="661" y="252" type="line"/>
      <point x="610" y="315"/>
      <point x="501" y="367"/>
      <point x="377" y="367" type="curve" smooth="yes"/>
      <point x="232" y="368"/>
      <point x="80" y="303"/>
      <point x="80" y="172" type="curve" smooth="yes"/>
      <point x="80" y="58"/>
      <point x="208" y="-9"/>
      <point x="365" y="-9" type="curve" smooth="yes"/>
    </contour>
    <contour>
      <point x="377" y="367" type="move" name="top"/>
    </contour>
    <contour>
      <point x="366" y="-10" type="move" name="bottom"/>
    </contour>
  </outline>
</glyph>
<glyph name="e" format="1">
  <advance width="758"/>
  <unicode hex="0065"/>
  <outline>
    <contour>
      <point x="657" y="84" type="line"/>
      <point x="581" y="40"/>
      <point x="500" y="12"/>
      <point x="383" y="13" type="curve"/>
      <point x="244" y="12"/>
      <point x="105" y="67"/>
      <point x="105" y="167" type="curve"/>
      <point x="105" y="291"/>
      <point x="265" y="344"/>
      <point x="410" y="344" type="curve" smooth="yes"/>
      <point x="540" y="344"/>
      <point x="642" y="315"/>
      <point x="642" y="258" type="curve" smooth="yes"/>
      <point x="642" y="197"/>
      <point x="543" y="170"/>
      <point x="418" y="170" type="curve" smooth="yes"/>
      <point x="320" y="170"/>
      <point x="189" y="193"/>
      <point x="99" y="222" type="curve"/>
      <point x="100" y="199" type="line"/>
      <point x="189" y="170"/>
      <point x="320" y="147"/>
      <point x="418" y="147" type="curve" smooth="yes"/>
      <point x="558" y="147"/>
      <point x="667" y="184"/>
      <point x="667" y="260" type="curve" smooth="yes"/>
      <point x="667" y="331"/>
      <point x="553" y="367"/>
      <point x="414" y="367" type="curve" smooth="yes"/>
      <point x="254" y="367"/>
      <point x="80" y="308"/>
      <point x="80" y="167" type="curve"/>
      <point x="80" y="46"/>
      <point x="234" y="-10"/>
      <point x="383" y="-10" type="curve"/>
      <point x="504" y="-10"/>
      <point x="591" y="19"/>
      <point x="668" y="65" type="curve"/>
    </contour>
    <contour>
      <point x="668" y="65" type="move" name="ogonek"/>
    </contour>
    <contour>
      <point x="376" y="-10" type="move" name="bottom"/>
    </contour>
    <contour>
      <point x="376" y="367" type="move" name="top"/>
    </contour>
  </outline>
</glyph>
<glyph name="f" format="1">
  <advance width="555"/>
  <unicode hex="0066"/>
  <outline>
    <contour>
      <point x="50" y="0" type="line"/>
      <point x="427" y="0" type="line"/>
      <point x="427" y="23" type="line"/>
      <point x="50" y="23" type="line"/>
    </contour>
    <contour>
      <point x="210" y="0" type="line"/>
      <point x="235" y="0" type="line"/>
      <point x="235" y="388" type="line"/>
      <point x="235" y="485"/>
      <point x="277" y="532"/>
      <point x="373" y="532" type="curve" smooth="yes"/>
      <point x="430" y="532"/>
      <point x="503" y="514"/>
      <point x="557" y="490" type="curve"/>
      <point x="565" y="513" type="line"/>
      <point x="509" y="535"/>
      <point x="439" y="555"/>
      <point x="375" y="555" type="curve" smooth="yes"/>
      <point x="260" y="555"/>
      <point x="210" y="494"/>
      <point x="210" y="386" type="curve"/>
    </contour>
    <contour>
      <point x="459" y="357" type="line"/>
      <point x="50" y="357" type="line"/>
      <point x="50" y="334" type="line"/>
      <point x="459" y="334" type="line"/>
    </contour>
    <contour>
      <point x="256" y="557" type="move" name="top"/>
    </contour>
    <contour>
      <point x="256" y="0" type="move" name="bottom"/>
    </contour>
  </outline>
</glyph>
<glyph name="j" format="1">
  <advance width="404"/>
  <unicode hex="006A"/>
  <outline>
    <contour>
      <point x="199" y="-190"/>
      <point x="249" y="-129"/>
      <point x="249" y="-32" type="curve" smooth="yes"/>
      <point x="249" y="344" type="line"/>
      <point x="224" y="344" type="line"/>
      <point x="224" y="-33" type="line" smooth="yes"/>
      <point x="224" y="-121"/>
      <point x="182" y="-167"/>
      <point x="106" y="-167" type="curve" smooth="yes"/>
      <point x="59" y="-167"/>
      <point x="14" y="-156"/>
      <point x="-28" y="-143" type="curve"/>
      <point x="-35" y="-165" type="line"/>
      <point x="7" y="-178"/>
      <point x="53" y="-190"/>
      <point x="105" y="-190" type="curve" smooth="yes"/>
    </contour>
    <contour>
      <point x="249" y="334" type="line"/>
      <point x="249" y="357" type="line"/>
      <point x="42" y="357" type="line"/>
      <point x="42" y="334" type="line"/>
    </contour>
    <contour>
      <point x="258" y="469"/>
      <point x="274" y="482"/>
      <point x="274" y="499" type="curve"/>
      <point x="274" y="517"/>
      <point x="258" y="530"/>
      <point x="227" y="530" type="curve"/>
      <point x="197" y="530"/>
      <point x="179" y="517"/>
      <point x="179" y="499" type="curve"/>
      <point x="179" y="482"/>
      <point x="197" y="469"/>
      <point x="227" y="469" type="curve"/>
    </contour>
    <contour>
      <point x="191" y="357" type="move" name="top"/>
    </contour>
    <contour>
      <point x="191" y="0" type="move" name="bottom"/>
    </contour>
  </outline>
</glyph>
<glyph name="l" format="1">
  <advance width="434"/>
  <unicode hex="006C"/>
  <outline>
    <contour>
      <point x="222" y="0" type="line"/>
      <point x="222" y="520" type="line"/>
      <point x="197" y="520" type="line"/>
      <point x="197" y="0" type="line"/>
    </contour>
    <contour>
      <point x="404" y="0" type="line"/>
      <point x="404" y="23" type="line"/>
      <point x="15" y="23" type="line"/>
      <point x="15" y="0" type="line"/>
    </contour>
    <contour>
      <point x="222" y="497" type="line"/>
      <point x="222" y="520" type="line"/>
      <point x="15" y="520" type="line"/>
      <point x="15" y="497" type="line"/>
    </contour>
    <contour>
      <point x="197" y="0" type="move" name="bottom"/>
    </contour>
    <contour>
      <point x="197" y="520" type="move" name="top"/>
    </contour>
    <contour>
      <point x="366" y="357" type="move" name="topright"/>
    </contour>
    <contour>
      <point x="197" y="283" type="move" name="center"/>
    </contour>
  </outline>
</glyph>
<glyph name="r" format="1">
  <advance width="740"/>
  <unicode hex="0072"/>
  <outline>
    <contour>
      <point x="376" y="287"/>
      <point x="497" y="344"/>
      <point x="625" y="344" type="curve"/>
      <point x="625" y="204" type="line"/>
      <point x="650" y="204" type="line"/>
      <point x="650" y="366" type="line"/>
      <point x="625" y="367" type="line"/>
      <point x="482" y="367"/>
      <point x="366" y="305"/>
      <point x="244" y="211" type="curve"/>
      <point x="244" y="188" type="line"/>
    </contour>
    <contour>
      <point x="439" y="0" type="line"/>
      <point x="439" y="23" type="line"/>
      <point x="50" y="23" type="line"/>
      <point x="50" y="0" type="line"/>
    </contour>
    <contour>
      <point x="257" y="0" type="line"/>
      <point x="257" y="357" type="line"/>
      <point x="232" y="357" type="line"/>
      <point x="232" y="0" type="line"/>
    </contour>
    <contour>
      <point x="257" y="334" type="line"/>
      <point x="257" y="357" type="line"/>
      <point x="50" y="357" type="line"/>
      <point x="50" y="334" type="line"/>
    </contour>
    <contour>
      <point x="355" y="357" type="move" name="top"/>
    </contour>
    <contour>
      <point x="355" y="0" type="move" name="bottom"/>
    </contour>
  </outline>
</glyph>
<glyph name="s" format="1">
  <advance width="707"/>
  <unicode hex="0073"/>
  <outline>
    <contour>
      <point x="539" y="-10"/>
      <point x="625" y="19"/>
      <point x="625" y="86" type="curve" smooth="yes"/>
      <point x="625" y="158"/>
      <point x="540" y="177"/>
      <point x="350" y="188" type="curve" smooth="yes"/>
      <point x="176" y="198"/>
      <point x="113" y="222"/>
      <point x="113" y="268" type="curve" smooth="yes"/>
      <point x="113" y="318"/>
      <point x="184" y="345"/>
      <point x="301" y="345" type="curve" smooth="yes"/>
      <point x="426" y="345"/>
      <point x="536" y="306"/>
      <point x="609" y="220" type="curve"/>
      <point x="609" y="220" type="line"/>
      <point x="609" y="357" type="line"/>
      <point x="587" y="357" type="line"/>
      <point x="587" y="257" type="line"/>
      <point x="602" y="250" type="line"/>
      <point x="553" y="313"/>
      <point x="444" y="367"/>
      <point x="306" y="367" type="curve" smooth="yes"/>
      <point x="155" y="367"/>
      <point x="89" y="327"/>
      <point x="89" y="267" type="curve" smooth="yes"/>
      <point x="89" y="204"/>
      <point x="167" y="173"/>
      <point x="350" y="163" type="curve" smooth="yes"/>
      <point x="533" y="153"/>
      <point x="601" y="137"/>
      <point x="601" y="85" type="curve" smooth="yes"/>
      <point x="601" y="27"/>
      <point x="505" y="12"/>
      <point x="400" y="12" type="curve" smooth="yes"/>
      <point x="279" y="12"/>
      <point x="151" y="50"/>
      <point x="82" y="136" type="curve"/>
      <point x="82" y="136" type="line"/>
      <point x="82" y="0" type="line"/>
      <point x="104" y="0" type="line"/>
      <point x="104" y="99" type="line"/>
      <point x="88" y="106" type="line"/>
      <point x="135" y="43"/>
      <point x="257" y="-10"/>
      <point x="395" y="-10" type="curve" smooth="yes"/>
    </contour>
    <contour>
      <point x="357" y="367" type="move" name="top"/>
    </contour>
    <contour>
      <point x="397" y="-10" type="move" name="bottom"/>
    </contour>
  </outline>
</glyph>
<glyph name="t" format="1">
  <advance width="528"/>
  <unicode hex="0074"/>
  <outline>
    <contour>
      <point x="361" y="-10"/>
      <point x="425" y="14"/>
      <point x="468" y="35" type="curve"/>
      <point x="458" y="56" type="line"/>
      <point x="417" y="35"/>
      <point x="358" y="13"/>
      <point x="289" y="13" type="curve" smooth="yes"/>
      <point x="227" y="13"/>
      <point x="185" y="41"/>
      <point x="185" y="123" type="curve"/>
      <point x="185" y="456" type="line"/>
      <point x="160" y="456" type="line"/>
      <point x="160" y="123" type="line"/>
      <point x="160" y="27"/>
      <point x="210" y="-10"/>
      <point x="291" y="-10" type="curve" smooth="yes"/>
    </contour>
    <contour>
      <point x="423" y="334" type="line"/>
      <point x="423" y="357" type="line"/>
      <point x="30" y="357" type="line"/>
      <point x="30" y="334" type="line"/>
    </contour>
    <contour>
      <point x="306" y="-10" type="move" name="bottom"/>
    </contour>
    <contour>
      <point x="266" y="456" type="move" name="top"/>
    </contour>
    <contour>
      <point x="359" y="419" type="move" name="topright"/>
    </contour>
    <contour>
      <point x="266" y="179" type="move" name="center"/>
    </contour>
  </outline>
</glyph>
<glyph name="u" format="1">
  <advance width="852"/>
  <unicode hex="0075"/>
  <outline>
    <contour>
      <point x="482" y="-10"/>
      <point x="577" y="40"/>
      <point x="677" y="88" type="curve"/>
      <point x="677" y="112" type="line"/>
      <point x="577" y="62"/>
      <point x="467" y="13"/>
      <point x="368" y="13" type="curve"/>
      <point x="258" y="14"/>
      <point x="197" y="60"/>
      <point x="197" y="165" type="curve"/>
      <point x="197" y="357" type="line"/>
      <point x="172" y="357" type="line"/>
      <point x="172" y="165" type="line"/>
      <point x="172" y="39"/>
      <point x="248" y="-10"/>
      <point x="368" y="-10" type="curve"/>
    </contour>
    <contour>
      <point x="184" y="334" type="line"/>
      <point x="184" y="357" type="line"/>
      <point x="0" y="357" type="line"/>
      <point x="0" y="334" type="line"/>
    </contour>
    <contour>
      <point x="786" y="-10"/>
      <point x="812" y="2"/>
      <point x="837" y="19" type="curve"/>
      <point x="827" y="39" type="line"/>
      <point x="804" y="22"/>
      <point x="782" y="13"/>
      <point x="755" y="13" type="curve" smooth="yes"/>
      <point x="723" y="13"/>
      <point x="691" y="38"/>
      <point x="691" y="94" type="curve"/>
      <point x="691" y="357" type="line"/>
      <point x="666" y="357" type="line"/>
      <point x="666" y="94" type="line"/>
      <point x="666" y="28"/>
      <point x="704" y="-10"/>
      <point x="754" y="-10" type="curve" smooth="yes"/>
    </contour>
    <contour>
      <point x="684" y="334" type="line"/>
      <point x="684" y="357" type="line"/>
      <point x="506" y="357" type="line"/>
      <point x="506" y="334" type="line"/>
    </contour>
    <contour>
      <point x="837" y="19" type="move" name="ogonek"/>
    </contour>
    <contour>
      <point x="381" y="347" type="move" name="top"/>
    </contour>
    <contour>
      <point x="812" y="357" type="move" name="topright"/>
    </contour>
    <contour>
      <point x="368" y="-10" type="move" name="bottom"/>
    </contour>
  </outline>
</glyph>
<glyph name="v" format="1">
  <advance width="753"/>
  <unicode hex="0076"/>
  <outline>
    <contour>
      <point x="0" y="357" type="line"/>
      <point x="0" y="334" type="line"/>
      <point x="273" y="334" type="line"/>
      <point x="273" y="357" type="line"/>
    </contour>
    <contour>
      <point x="479" y="357" type="line"/>
      <point x="479" y="334" type="line"/>
      <point x="753" y="334" type="line"/>
      <point x="753" y="357" type="line"/>
    </contour>
    <contour>
      <point x="377" y="-10" type="line"/>
      <point x="635" y="348" type="line"/>
      <point x="608" y="348" type="line"/>
      <point x="375" y="19" type="line"/>
      <point x="142" y="348" type="line"/>
      <point x="112" y="348" type="line"/>
      <point x="371" y="-10" type="line"/>
    </contour>
    <contour>
      <point x="377" y="347" type="move" name="top"/>
    </contour>
    <contour>
      <point x="375" y="0" type="move" name="bottom"/>
    </contour>
  </outline>
</glyph>
<glyph name="w" format="1">
  <advance width="1025"/>
  <unicode hex="0077"/>
  <outline>
    <contour>
      <point x="359" y="-11" type="line"/>
      <point x="626" y="348" type="line"/>
      <point x="599" y="348" type="line"/>
      <point x="359" y="20" type="line"/>
      <point x="147" y="348" type="line"/>
      <point x="118" y="348" type="line"/>
      <point x="353" y="-11" type="line"/>
    </contour>
    <contour>
      <point x="257" y="334" type="line"/>
      <point x="257" y="357" type="line"/>
      <point x="5" y="357" type="line"/>
      <point x="5" y="334" type="line"/>
    </contour>
    <contour>
      <point x="667" y="-11" type="line"/>
      <point x="902" y="348" type="line"/>
      <point x="876" y="348" type="line"/>
      <point x="664" y="20" type="line"/>
      <point x="429" y="348" type="line"/>
      <point x="401" y="348" type="line"/>
      <point x="661" y="-11" type="line"/>
    </contour>
    <contour>
      <point x="681" y="335" type="line"/>
      <point x="681" y="357" type="line"/>
      <point x="344" y="357" type="line"/>
      <point x="344" y="335" type="line"/>
    </contour>
    <contour>
      <point x="1020" y="334" type="line"/>
      <point x="1020" y="357" type="line"/>
      <point x="767" y="357" type="line"/>
      <point x="767" y="334" type="line"/>
    </contour>
    <contour>
      <point x="513" y="357" type="move" name="top"/>
    </contour>
    <contour>
      <point x="513" y="0" type="move" name="bottom"/>
    </contour>
  </outline>
</glyph>
<glyph name="x" format="1">
  <advance width="794"/>
  <unicode hex="0078"/>
  <outline>
    <contour>
      <point x="764" y="334" type="line"/>
      <point x="764" y="357" type="line"/>
      <point x="456" y="357" type="line"/>
      <point x="456" y="334" type="line"/>
    </contour>
    <contour>
      <point x="149" y="9" type="line"/>
      <point x="407" y="178" type="line"/>
      <point x="409" y="175" type="line"/>
      <point x="677" y="348" type="line"/>
      <point x="640" y="348" type="line"/>
      <point x="394" y="190" type="line"/>
      <point x="392" y="193" type="line"/>
      <point x="112" y="9" type="line"/>
    </contour>
    <contour>
      <point x="333" y="0" type="line"/>
      <point x="333" y="23" type="line"/>
      <point x="25" y="23" type="line"/>
      <point x="25" y="0" type="line"/>
    </contour>
    <contour>
      <point x="64" y="235" type="line"/>
      <point x="64" y="292"/>
      <point x="105" y="344"/>
      <point x="176" y="344" type="curve" smooth="yes"/>
      <point x="253" y="344"/>
      <point x="308" y="292"/>
      <point x="387" y="185" type="curve"/>
      <point x="391" y="180" type="line"/>
      <point x="474" y="67"/>
      <point x="532" y="-10"/>
      <point x="624" y="-10" type="curve" smooth="yes"/>
      <point x="718" y="-10"/>
      <point x="759" y="69"/>
      <point x="759" y="122" type="curve"/>
      <point x="734" y="122" type="line"/>
      <point x="734" y="65"/>
      <point x="693" y="13"/>
      <point x="625" y="13" type="curve" smooth="yes"/>
      <point x="554" y="13"/>
      <point x="502" y="69"/>
      <point x="411" y="191" type="curve"/>
      <point x="406" y="198" type="line"/>
      <point x="327" y="305"/>
      <point x="272" y="367"/>
      <point x="178" y="367" type="curve" smooth="yes"/>
      <point x="81" y="367"/>
      <point x="39" y="288"/>
      <point x="39" y="235" type="curve"/>
    </contour>
    <contour>
      <point x="392" y="357" type="move" name="top"/>
    </contour>
    <contour>
      <point x="392" y="0" type="move" name="bottom"/>
    </contour>
  </outline>
</glyph>
<glyph name="y" format="1">
  <advance width="727"/>
  <unicode hex="0079"/>
  <outline>
    <contour>
      <point x="262" y="-193"/>
      <point x="313" y="-134"/>
      <point x="366" y="-48" type="curve" smooth="yes"/>
      <point x="606" y="343" type="line"/>
      <point x="578" y="343" type="line"/>
      <point x="338" y="-49" type="line" smooth="yes"/>
      <point x="290" y="-128"/>
      <point x="246" y="-170"/>
      <point x="176" y="-170" type="curve" smooth="yes"/>
      <point x="120" y="-170"/>
      <point x="78" y="-153"/>
      <point x="28" y="-129" type="curve"/>
      <point x="20" y="-151" type="line"/>
      <point x="72" y="-173"/>
      <point x="111" y="-193"/>
      <point x="175" y="-193" type="curve" smooth="yes"/>
    </contour>
    <contour>
      <point x="372" y="-20" type="line"/>
      <point x="141" y="348" type="line"/>
      <point x="113" y="348" type="line"/>
      <point x="357" y="-44" type="line"/>
    </contour>
    <contour>
      <point x="273" y="334" type="line"/>
      <point x="273" y="357" type="line"/>
      <point x="0" y="357" type="line"/>
      <point x="0" y="334" type="line"/>
    </contour>
    <contour>
      <point x="727" y="334" type="line"/>
      <point x="727" y="357" type="line"/>
      <point x="454" y="357" type="line"/>
      <point x="454" y="334" type="line"/>
    </contour>
    <contour>
      <point x="364" y="357" type="move" name="top"/>
    </contour>
    <contour>
      <point x="364" y="0" type="move" name="bottom"/>
    </contour>
  </outline>
</glyph>
<glyph name="braceleft" format="1">
  <advance width="449"/>
  <unicode hex="007B"/>
  <outline>
    <contour>
      <point x="346" y="-120"/>
      <point x="404" y="-109"/>
      <point x="449" y="-95" type="curve"/>
      <point x="442" y="-73" type="line"/>
      <point x="403" y="-84"/>
      <point x="352" y="-96"/>
      <point x="293" y="-96" type="curve" smooth="yes"/>
      <point x="217" y="-96"/>
      <point x="118" y="-72"/>
      <point x="118" y="1" type="curve" smooth="yes"/>
      <point x="118" y="101"/>
      <point x="320" y="91"/>
      <point x="320" y="191" type="curve" smooth="yes"/>
      <point x="320" y="239"/>
      <point x="254" y="270"/>
      <point x="166" y="270" type="curve"/>
      <point x="166" y="260" type="line"/>
      <point x="254" y="260"/>
      <point x="320" y="291"/>
      <point x="320" y="339" type="curve" smooth="yes"/>
      <point x="320" y="439"/>
      <point x="118" y="429"/>
      <point x="118" y="529" type="curve" smooth="yes"/>
      <point x="118" y="602"/>
      <point x="217" y="626"/>
      <point x="293" y="626" type="curve" smooth="yes"/>
      <point x="352" y="626"/>
      <point x="403" y="615"/>
      <point x="442" y="603" type="curve"/>
      <point x="449" y="625" type="line"/>
      <point x="404" y="639"/>
      <point x="346" y="650"/>
      <point x="285" y="650" type="curve" smooth="yes"/>
      <point x="194" y="650"/>
      <point x="93" y="617"/>
      <point x="93" y="532" type="curve" smooth="yes"/>
      <point x="93" y="410"/>
      <point x="296" y="418"/>
      <point x="296" y="340" type="curve" smooth="yes"/>
      <point x="296" y="302"/>
      <point x="250" y="276"/>
      <point x="152" y="276" type="curve" smooth="yes"/>
      <point x="90" y="276" type="line"/>
      <point x="90" y="254" type="line"/>
      <point x="152" y="254" type="line" smooth="yes"/>
      <point x="250" y="254"/>
      <point x="296" y="228"/>
      <point x="296" y="190" type="curve" smooth="yes"/>
      <point x="296" y="117"/>
      <point x="93" y="115"/>
      <point x="93" y="-2" type="curve" smooth="yes"/>
      <point x="93" y="-87"/>
      <point x="194" y="-120"/>
      <point x="285" y="-120" type="curve" smooth="yes"/>
    </contour>
  </outline>
</glyph>
<glyph name="bar" format="1">
  <advance width="275"/>
  <unicode hex="007C"/>
  <outline>
    <contour>
      <point x="125" y="-146" type="line"/>
      <point x="150" y="-146" type="line"/>
      <point x="150" y="634" type="line"/>
      <point x="125" y="634" type="line"/>
    </contour>
  </outline>
</glyph>
<glyph name="cent" format="1">
  <advance width="720"/>
  <unicode hex="00A2"/>
  <outline>
    <contour>
      <point x="475" y="57"/>
      <point x="569" y="94"/>
      <point x="640" y="147" type="curve"/>
      <point x="628" y="165" type="line"/>
      <point x="559" y="117"/>
      <point x="464" y="79"/>
      <point x="345" y="80" type="curve" smooth="yes"/>
      <point x="213" y="81"/>
      <point x="105" y="134"/>
      <point x="105" y="228" type="curve" smooth="yes"/>
      <point x="105" y="342"/>
      <point x="237" y="391"/>
      <point x="355" y="390" type="curve" smooth="yes"/>
      <point x="459" y="389"/>
      <point x="558" y="352"/>
      <point x="631" y="266" type="curve"/>
      <point x="637" y="267" type="line"/>
      <point x="637" y="403" type="line"/>
      <point x="614" y="403" type="line"/>
      <point x="614" y="303" type="line"/>
      <point x="629" y="298" type="line"/>
      <point x="578" y="361"/>
      <point x="476" y="412"/>
      <point x="357" y="413" type="curve" smooth="yes"/>
      <point x="227" y="414"/>
      <point x="80" y="359"/>
      <point x="80" y="228" type="curve" smooth="yes"/>
      <point x="80" y="114"/>
      <point x="203" y="57"/>
      <point x="345" y="57" type="curve" smooth="yes"/>
    </contour>
    <contour>
      <point x="370" y="-10" type="line"/>
      <point x="370" y="67" type="line"/>
      <point x="370" y="75" type="line"/>
      <point x="370" y="401" type="line"/>
      <point x="370" y="406" type="line"/>
      <point x="370" y="480" type="line"/>
      <point x="347" y="480" type="line"/>
      <point x="347" y="407" type="line"/>
      <point x="347" y="401" type="line"/>
      <point x="347" y="72" type="line"/>
      <point x="347" y="67" type="line"/>
      <point x="347" y="-10" type="line"/>
    </contour>
  </outline>
</glyph>
<glyph name="yen" format="1">
  <advance width="900"/>
  <unicode hex="00A5"/>
  <outline>
    <contour>
      <point x="352" y="447" type="line"/>
      <point x="352" y="470" type="line"/>
      <point x="15" y="470" type="line"/>
      <point x="15" y="447" type="line"/>
    </contour>
    <contour>
      <point x="885" y="447" type="line"/>
      <point x="885" y="470" type="line"/>
      <point x="549" y="470" type="line"/>
      <point x="549" y="447" type="line"/>
    </contour>
    <contour>
      <point x="458" y="151" type="line"/>
      <point x="723" y="450" type="line"/>
      <point x="708" y="466" type="line"/>
      <point x="443" y="166" type="line"/>
      <point x="458" y="166" type="line"/>
      <point x="191" y="468" type="line"/>
      <point x="176" y="450" type="line"/>
      <point x="442" y="151" type="line"/>
    </contour>
    <contour>
      <point x="465" y="300" type="line"/>
      <point x="465" y="322" type="line"/>
      <point x="91" y="322" type="line"/>
      <point x="91" y="300" type="line"/>
    </contour>
    <contour>
      <point x="812" y="300" type="line"/>
      <point x="812" y="322" type="line"/>
      <point x="445" y="322" type="line"/>
      <point x="445" y="300" type="line"/>
    </contour>
    <contour>
      <point x="812" y="150" type="line"/>
      <point x="812" y="172" type="line"/>
      <point x="91" y="172" type="line"/>
      <point x="91" y="150" type="line"/>
    </contour>
    <contour>
      <point x="463" y="0" type="line"/>
      <point x="463" y="161" type="line"/>
      <point x="438" y="161" type="line"/>
      <point x="438" y="0" type="line"/>
    </contour>
    <contour>
      <point x="645" y="0" type="line"/>
      <point x="645" y="23" type="line"/>
      <point x="256" y="23" type="line"/>
      <point x="256" y="0" type="line"/>
    </contour>
  </outline>
</glyph>
<glyph name="section" format="1">
  <advance width="810"/>
  <unicode hex="00A7"/>
  <outline>
    <contour>
      <point x="602" y="-10"/>
      <point x="733" y="28"/>
      <point x="733" y="127" type="curve" smooth="yes"/>
      <point x="733" y="207"/>
      <point x="656" y="260"/>
      <point x="441" y="277" type="curve" smooth="yes"/>
      <point x="215" y="295"/>
      <point x="128" y="322"/>
      <point x="128" y="397" type="curve" smooth="yes"/>
      <point x="128" y="470"/>
      <point x="218" y="507"/>
      <point x="317" y="507" type="curve" smooth="yes"/>
      <point x="436" y="507"/>
      <point x="579" y="446"/>
      <point x="669" y="345" type="curve"/>
      <point x="675" y="347" type="line"/>
      <point x="675" y="520" type="line"/>
      <point x="652" y="520" type="line"/>
      <point x="652" y="380" type="line"/>
      <point x="667" y="380" type="line"/>
      <point x="594" y="455"/>
      <point x="460" y="530"/>
      <point x="318" y="530" type="curve" smooth="yes"/>
      <point x="202" y="530"/>
      <point x="103" y="481"/>
      <point x="103" y="397" type="curve" smooth="yes"/>
      <point x="103" y="303"/>
      <point x="201" y="275"/>
      <point x="440" y="253" type="curve" smooth="yes"/>
      <point x="633" y="235"/>
      <point x="708" y="194"/>
      <point x="708" y="125" type="curve" smooth="yes"/>
      <point x="708" y="40"/>
      <point x="568" y="9"/>
      <point x="426" y="21" type="curve"/>
      <point x="445" y="5" type="line"/>
    </contour>
    <contour>
      <point x="608" y="-248"/>
      <point x="707" y="-199"/>
      <point x="707" y="-115" type="curve" smooth="yes"/>
      <point x="707" y="-21"/>
      <point x="609" y="7"/>
      <point x="370" y="29" type="curve" smooth="yes"/>
      <point x="177" y="47"/>
      <point x="102" y="88"/>
      <point x="102" y="157" type="curve" smooth="yes"/>
      <point x="102" y="242"/>
      <point x="242" y="273"/>
      <point x="384" y="261" type="curve"/>
      <point x="365" y="277" type="line"/>
      <point x="208" y="292"/>
      <point x="77" y="254"/>
      <point x="77" y="155" type="curve" smooth="yes"/>
      <point x="77" y="75"/>
      <point x="154" y="22"/>
      <point x="369" y="5" type="curve" smooth="yes"/>
      <point x="595" y="-13"/>
      <point x="682" y="-40"/>
      <point x="682" y="-115" type="curve" smooth="yes"/>
      <point x="682" y="-188"/>
      <point x="592" y="-225"/>
      <point x="493" y="-225" type="curve" smooth="yes"/>
      <point x="374" y="-225"/>
      <point x="231" y="-164"/>
      <point x="141" y="-63" type="curve"/>
      <point x="135" y="-65" type="line"/>
      <point x="135" y="-239" type="line"/>
      <point x="158" y="-239" type="line"/>
      <point x="158" y="-98" type="line"/>
      <point x="143" y="-98" type="line"/>
      <point x="216" y="-173"/>
      <point x="350" y="-248"/>
      <point x="492" y="-248" type="curve" smooth="yes"/>
    </contour>
  </outline>
</glyph>
<glyph name="ordfeminine" format="1">
  <advance width="504"/>
  <unicode hex="00AA"/>
  <outline>
    <contour>
      <point x="467" y="311"/>
      <point x="484" y="342"/>
      <point x="484" y="371" type="curve" smooth="yes"/>
      <point x="484" y="383" type="line"/>
      <point x="463" y="383" type="line"/>
      <point x="463" y="371" type="line" smooth="yes"/>
      <point x="463" y="347"/>
      <point x="451" y="330"/>
      <point x="430" y="330" type="curve" smooth="yes"/>
      <point x="405" y="330"/>
      <point x="394" y="351"/>
      <point x="394" y="381" type="curve"/>
      <point x="394" y="430" type="line" smooth="yes"/>
      <point x="394" y="489"/>
      <point x="349" y="530"/>
      <point x="256" y="530" type="curve" smooth="yes"/>
      <point x="198" y="530"/>
      <point x="138" y="518"/>
      <point x="73" y="496" type="curve"/>
      <point x="78" y="476" type="line"/>
      <point x="138" y="495"/>
      <point x="195" y="509"/>
      <point x="256" y="509" type="curve" smooth="yes"/>
      <point x="341" y="509"/>
      <point x="372" y="474"/>
      <point x="372" y="430" type="curve" smooth="yes"/>
      <point x="372" y="381" type="line"/>
      <point x="372" y="340"/>
      <point x="391" y="311"/>
      <point x="430" y="311" type="curve" smooth="yes"/>
    </contour>
    <contour>
      <point x="246" y="308"/>
      <point x="320" y="326"/>
      <point x="385" y="359" type="curve"/>
      <point x="385" y="378" type="line"/>
      <point x="318" y="346"/>
      <point x="245" y="328"/>
      <point x="181" y="328" type="curve" smooth="yes"/>
      <point x="126" y="328"/>
      <point x="87" y="338"/>
      <point x="87" y="370" type="curve"/>
      <point x="87" y="404"/>
      <point x="134" y="416"/>
      <point x="207" y="416" type="curve" smooth="yes"/>
      <point x="268" y="416"/>
      <point x="333" y="407"/>
      <point x="385" y="398" type="curve"/>
      <point x="385" y="418" type="line"/>
      <point x="333" y="426"/>
      <point x="269" y="435"/>
      <point x="198" y="435" type="curve" smooth="yes"/>
      <point x="123" y="435"/>
      <point x="65" y="417"/>
      <point x="65" y="370" type="curve"/>
      <point x="65" y="325"/>
      <point x="110" y="308"/>
      <point x="181" y="308" type="curve" smooth="yes"/>
    </contour>
    <contour>
      <point x="55" y="212" type="line"/>
      <point x="453" y="212" type="line"/>
      <point x="453" y="233" type="line"/>
      <point x="55" y="233" type="line"/>
    </contour>
  </outline>
</glyph>
<glyph name="guillemotleft" format="1">
  <advance width="700"/>
  <unicode hex="00AB"/>
  <outline>
    <contour>
      <point x="359" y="76" type="line"/>
      <point x="318" y="175"/>
      <point x="214" y="268"/>
      <point x="66" y="268" type="curve"/>
      <point x="66" y="261" type="line"/>
      <point x="214" y="261"/>
      <point x="318" y="354"/>
      <point x="359" y="453" type="curve"/>
      <point x="339" y="462" type="line"/>
      <point x="300" y="368"/>
      <point x="202" y="276"/>
      <point x="42" y="276" type="curve" smooth="yes"/>
      <point x="30" y="276" type="line"/>
      <point x="30" y="253" type="line"/>
      <point x="42" y="253" type="line" smooth="yes"/>
      <point x="202" y="253"/>
      <point x="300" y="161"/>
      <point x="339" y="67" type="curve"/>
    </contour>
    <contour>
      <point x="630" y="76" type="line"/>
      <point x="594" y="170"/>
      <point x="485" y="268"/>
      <point x="367" y="268" type="curve"/>
      <point x="367" y="261" type="line"/>
      <point x="485" y="261"/>
      <point x="594" y="359"/>
      <point x="630" y="453" type="curve"/>
      <point x="610" y="462" type="line"/>
      <point x="576" y="373"/>
      <point x="473" y="276"/>
      <point x="343" y="276" type="curve" smooth="yes"/>
      <point x="341" y="276" type="line"/>
      <point x="341" y="253" type="line"/>
      <point x="343" y="253" type="line" smooth="yes"/>
      <point x="473" y="253"/>
      <point x="576" y="156"/>
      <point x="610" y="67" type="curve"/>
    </contour>
  </outline>
</glyph>
<glyph name="uni00B5" format="1">
  <advance width="846"/>
  <unicode hex="00B5"/>
  <outline>
    <contour>
      <point x="476" y="-20"/>
      <point x="571" y="30"/>
      <point x="671" y="78" type="curve"/>
      <point x="671" y="102" type="line"/>
      <point x="571" y="52"/>
      <point x="461" y="3"/>
      <point x="372" y="3" type="curve"/>
      <point x="272" y="4"/>
      <point x="211" y="50"/>
      <point x="211" y="155" type="curve"/>
      <point x="211" y="357" type="line"/>
      <point x="194" y="357" type="line"/>
      <point x="194" y="155" type="line"/>
      <point x="194" y="29"/>
      <point x="262" y="-20"/>
      <point x="372" y="-20" type="curve"/>
    </contour>
    <contour>
      <point x="211" y="-165" type="line"/>
      <point x="211" y="0" type="line" smooth="yes"/>
      <point x="211" y="32"/>
      <point x="205" y="65"/>
      <point x="202" y="97" type="curve"/>
      <point x="202" y="357" type="line"/>
      <point x="187" y="357" type="line"/>
      <point x="187" y="-165" type="line"/>
    </contour>
    <contour>
      <point x="211" y="334" type="line"/>
      <point x="211" y="357" type="line"/>
      <point x="15" y="357" type="line"/>
      <point x="15" y="334" type="line"/>
    </contour>
    <contour>
      <point x="780" y="-20"/>
      <point x="806" y="-8"/>
      <point x="831" y="9" type="curve"/>
      <point x="821" y="29" type="line"/>
      <point x="798" y="12"/>
      <point x="776" y="3"/>
      <point x="749" y="3" type="curve" smooth="yes"/>
      <point x="717" y="3"/>
      <point x="685" y="28"/>
      <point x="685" y="84" type="curve"/>
      <point x="685" y="357" type="line"/>
      <point x="660" y="357" type="line"/>
      <point x="660" y="84" type="line"/>
      <point x="660" y="18"/>
      <point x="698" y="-20"/>
      <point x="748" y="-20" type="curve" smooth="yes"/>
    </contour>
  </outline>
</glyph>
<glyph name="paragraph" format="1">
  <advance width="827"/>
  <unicode hex="00B6"/>
  <outline>
    <contour>
      <point x="608" y="-175"/>
      <point x="697" y="-111"/>
      <point x="697" y="23" type="curve" smooth="yes"/>
      <point x="697" y="520" type="line"/>
      <point x="672" y="520" type="line"/>
      <point x="672" y="22" type="line" smooth="yes"/>
      <point x="672" y="-96"/>
      <point x="591" y="-152"/>
      <point x="492" y="-152" type="curve" smooth="yes"/>
      <point x="419" y="-152"/>
      <point x="349" y="-127"/>
      <point x="300" y="-105" type="curve"/>
      <point x="293" y="-128" type="line"/>
      <point x="342" y="-150"/>
      <point x="410" y="-175"/>
      <point x="491" y="-175" type="curve" smooth="yes"/>
    </contour>
    <contour>
      <point x="555" y="-152" type="line"/>
      <point x="555" y="450" type="line"/>
      <point x="531" y="460" type="line"/>
      <point x="531" y="-156" type="line"/>
    </contour>
    <contour>
      <point x="382" y="185"/>
      <point x="480" y="235"/>
      <point x="546" y="282" type="curve"/>
      <point x="546" y="306" type="line"/>
      <point x="471" y="253"/>
      <point x="367" y="208"/>
      <point x="253" y="208" type="curve" smooth="yes"/>
      <point x="140" y="208"/>
      <point x="55" y="259"/>
      <point x="55" y="349" type="curve" smooth="yes"/>
      <point x="55" y="441"/>
      <point x="154" y="508"/>
      <point x="288" y="507" type="curve" smooth="yes"/>
      <point x="431" y="506"/>
      <point x="575" y="447"/>
      <point x="688" y="354" type="curve"/>
      <point x="688" y="378" type="line"/>
      <point x="579" y="467"/>
      <point x="437" y="530"/>
      <point x="288" y="530" type="curve" smooth="yes"/>
      <point x="143" y="530"/>
      <point x="30" y="455"/>
      <point x="30" y="349" type="curve" smooth="yes"/>
      <point x="30" y="243"/>
      <point x="130" y="185"/>
      <point x="253" y="185" type="curve" smooth="yes"/>
    </contour>
  </outline>
</glyph>
<glyph name="AE" format="1">
  <advance width="1394"/>
  <unicode hex="00C6"/>
  <outline>
    <contour>
      <point x="185" y="13" type="line"/>
      <point x="623" y="502" type="line"/>
      <point x="613" y="502" type="line"/>
      <point x="853" y="13" type="line"/>
      <point x="881" y="13" type="line"/>
      <point x="636" y="510" type="line" smooth="yes"/>
      <point x="597" y="510" type="line"/>
      <point x="152" y="13" type="line"/>
    </contour>
    <contour>
      <point x="349" y="0" type="line"/>
      <point x="349" y="23" type="line"/>
      <point x="0" y="23" type="line"/>
      <point x="0" y="0" type="line"/>
    </contour>
    <contour>
      <point x="769" y="194" type="line"/>
      <point x="769" y="217" type="line"/>
      <point x="359" y="217" type="line"/>
      <point x="335" y="194" type="line"/>
    </contour>
    <contour>
      <point x="1289" y="0" type="line"/>
      <point x="1289" y="183" type="line"/>
      <point x="1265" y="183" type="line"/>
      <point x="1265" y="23" type="line"/>
      <point x="673" y="23" type="line"/>
      <point x="673" y="0" type="line"/>
    </contour>
    <contour>
      <point x="1023" y="158" type="line"/>
      <point x="1023" y="397" type="line"/>
      <point x="998" y="397" type="line"/>
      <point x="998" y="289" type="line"/>
      <point x="737" y="289" type="line"/>
      <point x="737" y="266" type="line"/>
      <point x="998" y="266" type="line"/>
      <point x="998" y="158" type="line"/>
    </contour>
    <contour>
      <point x="1289" y="337" type="line"/>
      <point x="1289" y="520" type="line"/>
      <point x="413" y="520" type="line"/>
      <point x="413" y="497" type="line"/>
      <point x="1264" y="497" type="line"/>
      <point x="1264" y="337" type="line"/>
    </contour>
    <contour>
      <point x="1289" y="0" type="move" name="ogonek"/>
    </contour>
    <contour>
      <point x="782" y="0" type="move" name="bottom"/>
    </contour>
    <contour>
      <point x="783" y="520" type="move" name="top"/>
    </contour>
  </outline>
</glyph>
<glyph name="thorn" format="1">
  <advance width="838"/>
  <unicode hex="00FE"/>
  <outline>
    <contour>
      <point x="401" y="367"/>
      <point x="279" y="303"/>
      <point x="163" y="219" type="curve"/>
      <point x="163" y="196" type="line"/>
      <point x="288" y="284"/>
      <point x="417" y="344"/>
      <point x="531" y="344" type="curve"/>
      <point x="664" y="344"/>
      <point x="744" y="283"/>
      <point x="744" y="195" type="curve"/>
      <point x="744" y="85"/>
      <point x="618" y="12"/>
      <point x="466" y="13" type="curve"/>
      <point x="347" y="12"/>
      <point x="234" y="55"/>
      <point x="160" y="95" type="curve"/>
      <point x="160" y="73" type="line"/>
      <point x="232" y="32"/>
      <point x="337" y="-10"/>
      <point x="466" y="-10" type="curve"/>
      <point x="629" y="-10"/>
      <point x="769" y="67"/>
      <point x="769" y="195" type="curve"/>
      <point x="769" y="303"/>
      <point x="674" y="367"/>
      <point x="531" y="367" type="curve"/>
    </contour>
    <contour>
      <point x="359" y="-165" type="line"/>
      <point x="359" y="-142" type="line"/>
      <point x="-30" y="-142" type="line"/>
      <point x="-30" y="-165" type="line"/>
    </contour>
    <contour>
      <point x="-30" y="520" type="line"/>
      <point x="-30" y="497" type="line"/>
      <point x="152" y="497" type="line"/>
      <point x="152" y="-151" type="line"/>
      <point x="177" y="-151" type="line"/>
      <point x="177" y="520" type="line"/>
    </contour>
  </outline>
</glyph>
<glyph name="dotlessi" format="1">
  <advance width="427"/>
  <unicode hex="0131"/>
  <outline>
    <contour>
      <point x="245" y="0" type="line"/>
      <point x="245" y="357" type="line"/>
      <point x="220" y="357" type="line"/>
      <point x="220" y="0" type="line"/>
    </contour>
    <contour>
      <point x="427" y="0" type="line"/>
      <point x="427" y="23" type="line"/>
      <point x="38" y="23" type="line"/>
      <point x="38" y="0" type="line"/>
    </contour>
    <contour>
      <point x="245" y="334" type="line"/>
      <point x="245" y="357" type="line"/>
      <point x="38" y="357" type="line"/>
      <point x="38" y="334" type="line"/>
    </contour>
    <contour>
      <point x="406" y="0" type="move" name="ogonek"/>
    </contour>
    <contour>
      <point x="205" y="0" type="move" name="bottom"/>
    </contour>
    <contour>
      <point x="215" y="357" type="move" name="top"/>
    </contour>
  </outline>
</glyph>
<glyph name="oe" format="1">
  <advance width="1295"/>
  <unicode hex="0153"/>
  <outline>
    <contour>
      <point x="538" y="-20"/>
      <point x="677" y="50"/>
      <point x="677" y="179" type="curve"/>
      <point x="677" y="312"/>
      <point x="538" y="377"/>
      <point x="379" y="377" type="curve"/>
      <point x="221" y="376"/>
      <point x="80" y="312"/>
      <point x="80" y="179" type="curve"/>
      <point x="80" y="50"/>
      <point x="221" y="-20"/>
      <point x="379" y="-20" type="curve" smooth="yes"/>
    </contour>
    <contour>
      <point x="232" y="3"/>
      <point x="105" y="66"/>
      <point x="105" y="179" type="curve"/>
      <point x="105" y="295"/>
      <point x="232" y="353"/>
      <point x="379" y="354" type="curve"/>
      <point x="528" y="354"/>
      <point x="656" y="295"/>
      <point x="656" y="179" type="curve"/>
      <point x="656" y="66"/>
      <point x="528" y="3"/>
      <point x="379" y="3" type="curve" smooth="yes"/>
    </contour>
    <contour>
      <point x="1194" y="74" type="line"/>
      <point x="1118" y="30"/>
      <point x="1027" y="2"/>
      <point x="930" y="3" type="curve"/>
      <point x="820" y="2"/>
      <point x="681" y="62"/>
      <point x="681" y="167" type="curve"/>
      <point x="681" y="290"/>
      <point x="841" y="353"/>
      <point x="967" y="353" type="curve" smooth="yes"/>
      <point x="1077" y="353"/>
      <point x="1179" y="324"/>
      <point x="1179" y="258" type="curve" smooth="yes"/>
      <point x="1179" y="192"/>
      <point x="1070" y="165"/>
      <point x="975" y="165" type="curve" smooth="yes"/>
      <point x="897" y="165"/>
      <point x="766" y="188"/>
      <point x="676" y="217" type="curve"/>
      <point x="677" y="194" type="line"/>
      <point x="766" y="165"/>
      <point x="897" y="142"/>
      <point x="975" y="142" type="curve" smooth="yes"/>
      <point x="1085" y="142"/>
      <point x="1204" y="179"/>
      <point x="1204" y="260" type="curve" smooth="yes"/>
      <point x="1204" y="340"/>
      <point x="1090" y="376"/>
      <point x="971" y="376" type="curve" smooth="yes"/>
      <point x="821" y="376"/>
      <point x="673" y="301"/>
      <point x="663" y="193" type="curve"/>
      <point x="663" y="165" type="line"/>
      <point x="663" y="39"/>
      <point x="811" y="-20"/>
      <point x="930" y="-20" type="curve"/>
      <point x="1031" y="-20"/>
      <point x="1128" y="9"/>
      <point x="1205" y="55" type="curve"/>
    </contour>
    <contour>
      <point x="681" y="-10" type="move" name="bottom"/>
    </contour>
    <contour>
      <point x="1205" y="55" type="move" name="ogonek"/>
    </contour>
    <contour>
      <point x="672" y="367" type="move" name="top"/>
    </contour>
    <contour>
      <point x="670" y="179" type="move" name="center"/>
    </contour>
  </outline>
</glyph>
<glyph name="uni02BB" format="1">
  <advance width="259"/>
  <unicode hex="02BB"/>
  <outline>
    <contour>
      <point x="70" y="-237"/>
      <point x="89" y="-257"/>
      <point x="124" y="-257" type="curve" smooth="yes"/>
      <point x="155" y="-257"/>
      <point x="174" y="-242"/>
      <point x="174" y="-223" type="curve" smooth="yes"/>
      <point x="174" y="-204"/>
      <point x="156" y="-192"/>
      <point x="131" y="-192" type="curve" smooth="yes"/>
      <point x="116" y="-192"/>
      <point x="103" y="-194"/>
      <point x="91" y="-197" type="curve"/>
      <point x="98" y="-153"/>
      <point x="126" y="-105"/>
      <point x="169" y="-74" type="curve"/>
      <point x="158" y="-62" type="line"/>
      <point x="104" y="-96"/>
      <point x="70" y="-162"/>
      <point x="70" y="-205" type="curve" smooth="yes"/>
    </contour>
    <contour>
      <point x="137" y="0" type="move" name="_bottom"/>
    </contour>
  </outline>
</glyph>
<glyph name="gravecomb" format="1">
  <advance width="490"/>
  <unicode hex="0300"/>
  <outline>
    <contour>
      <point x="394" y="513" type="line"/>
      <point x="90" y="634" type="line"/>
      <point x="101" y="662" type="line"/>
      <point x="400" y="531" type="line"/>
    </contour>
    <contour>
      <point x="262" y="421" type="move" name="_top"/>
    </contour>
  </outline>
</glyph>
<glyph name="acutecomb" format="1">
  <advance width="490"/>
  <unicode hex="0301"/>
  <outline>
    <contour>
      <point x="389" y="662" type="line"/>
      <point x="400" y="634" type="line"/>
      <point x="96" y="513" type="line"/>
      <point x="90" y="531" type="line"/>
    </contour>
    <contour>
      <point x="213" y="421" type="move" name="_top"/>
    </contour>
  </outline>
</glyph>
<glyph name="uni0302" format="1">
  <advance width="464"/>
  <unicode hex="0302"/>
  <outline>
    <contour>
      <point x="232" y="596" type="line"/>
      <point x="398" y="469" type="line"/>
      <point x="409" y="482" type="line"/>
      <point x="242" y="624" type="line"/>
      <point x="222" y="624" type="line"/>
      <point x="55" y="482" type="line"/>
      <point x="66" y="469" type="line"/>
    </contour>
    <contour>
      <point x="232" y="421" type="move" name="_top"/>
    </contour>
  </outline>
</glyph>
<glyph name="uni0304" format="1">
  <advance width="617"/>
  <unicode hex="0304"/>
  <outline>
    <contour>
      <point x="70" y="592" type="line"/>
      <point x="70" y="568" type="line"/>
      <point x="547" y="568" type="line"/>
      <point x="547" y="592" type="line"/>
    </contour>
    <contour>
      <point x="313" y="441" type="move" name="_top"/>
    </contour>
  </outline>
</glyph>
<glyph name="uni0308" format="1">
  <advance width="482"/>
  <unicode hex="0308"/>
  <outline>
    <contour>
      <point x="381" y="571"/>
      <point x="396" y="584"/>
      <point x="396" y="600" type="curve"/>
      <point x="396" y="617"/>
      <point x="381" y="629"/>
      <point x="352" y="629" type="curve"/>
      <point x="324" y="629"/>
      <point x="307" y="617"/>
      <point x="307" y="600" type="curve"/>
      <point x="307" y="584"/>
      <point x="324" y="571"/>
      <point x="352" y="571" type="curve"/>
    </contour>
    <contour>
      <point x="159" y="571"/>
      <point x="175" y="584"/>
      <point x="175" y="600" type="curve"/>
      <point x="175" y="617"/>
      <point x="159" y="629"/>
      <point x="130" y="629" type="curve"/>
      <point x="102" y="629"/>
      <point x="86" y="617"/>
      <point x="86" y="600" type="curve"/>
      <point x="86" y="584"/>
      <point x="102" y="571"/>
      <point x="130" y="571" type="curve"/>
    </contour>
    <contour>
      <point x="245" y="471" type="move" name="_top"/>
    </contour>
  </outline>
</glyph>
<glyph name="hookabovecomb" format="1">
  <advance width="383"/>
  <unicode hex="0309"/>
  <outline>
    <contour>
      <point x="243" y="460" type="line"/>
      <point x="276" y="493"/>
      <point x="298" y="520"/>
      <point x="298" y="557" type="curve" smooth="yes"/>
      <point x="298" y="602"/>
      <point x="258" y="632"/>
      <point x="198" y="632" type="curve" smooth="yes"/>
      <point x="148" y="632"/>
      <point x="109" y="612"/>
      <point x="82" y="593" type="curve"/>
      <point x="93" y="575" type="line"/>
      <point x="121" y="592"/>
      <point x="155" y="609"/>
      <point x="198" y="609" type="curve" smooth="yes"/>
      <point x="245" y="609"/>
      <point x="273" y="586"/>
      <point x="273" y="554" type="curve" smooth="yes"/>
      <point x="273" y="520"/>
      <point x="250" y="497"/>
      <point x="233" y="469" type="curve"/>
    </contour>
    <contour>
      <point x="178" y="437" type="move" name="_hook"/>
    </contour>
  </outline>
</glyph>
<glyph name="uni030A" format="1">
  <advance width="411"/>
  <unicode hex="030A"/>
  <outline>
    <contour>
      <point x="285" y="473"/>
      <point x="341" y="519"/>
      <point x="341" y="579" type="curve"/>
      <point x="341" y="642"/>
      <point x="285" y="684"/>
      <point x="206" y="684" type="curve"/>
      <point x="131" y="684"/>
      <point x="70" y="642"/>
      <point x="70" y="579" type="curve"/>
      <point x="70" y="519"/>
      <point x="131" y="473"/>
      <point x="206" y="473" type="curve"/>
    </contour>
    <contour>
      <point x="142" y="495"/>
      <point x="93" y="533"/>
      <point x="93" y="579" type="curve"/>
      <point x="93" y="627"/>
      <point x="142" y="662"/>
      <point x="206" y="662" type="curve"/>
      <point x="273" y="662"/>
      <point x="318" y="627"/>
      <point x="318" y="579" type="curve"/>
      <point x="318" y="533"/>
      <point x="273" y="495"/>
      <point x="206" y="495" type="curve"/>
    </contour>
    <contour>
      <point x="206" y="391" type="move" name="_top"/>
    </contour>
  </outline>
</glyph>
<glyph name="uni0312" format="1">
  <advance width="249"/>
  <unicode hex="0312"/>
  <outline>
    <contour>
      <point x="70" y="488"/>
      <point x="90" y="470"/>
      <point x="119" y="470" type="curve" smooth="yes"/>
      <point x="147" y="470"/>
      <point x="164" y="484"/>
      <point x="164" y="501" type="curve" smooth="yes"/>
      <point x="164" y="518"/>
      <point x="148" y="529"/>
      <point x="125" y="529" type="curve" smooth="yes"/>
      <point x="112" y="529"/>
      <point x="101" y="527"/>
      <point x="90" y="525" type="curve"/>
      <point x="97" y="569"/>
      <point x="129" y="605"/>
      <point x="179" y="650" type="curve"/>
      <point x="168" y="662" type="line"/>
      <point x="107" y="614"/>
      <point x="70" y="560"/>
      <point x="70" y="517" type="curve" smooth="yes"/>
    </contour>
    <contour>
      <point x="120" y="393" type="move" name="_top"/>
    </contour>
  </outline>
</glyph>
<glyph name="uni0326" format="1">
  <advance width="262"/>
  <unicode hex="0326"/>
  <outline>
    <contour>
      <point x="176" y="-103"/>
      <point x="156" y="-85"/>
      <point x="127" y="-85" type="curve" smooth="yes"/>
      <point x="99" y="-85"/>
      <point x="82" y="-99"/>
      <point x="82" y="-116" type="curve" smooth="yes"/>
      <point x="82" y="-133"/>
      <point x="98" y="-144"/>
      <point x="121" y="-144" type="curve" smooth="yes"/>
      <point x="134" y="-144"/>
      <point x="145" y="-142"/>
      <point x="156" y="-140" type="curve"/>
      <point x="149" y="-184"/>
      <point x="117" y="-220"/>
      <point x="67" y="-265" type="curve"/>
      <point x="78" y="-277" type="line"/>
      <point x="139" y="-229"/>
      <point x="176" y="-175"/>
      <point x="176" y="-132" type="curve" smooth="yes"/>
    </contour>
    <contour>
      <point x="127" y="0" type="move" name="_bottom"/>
    </contour>
  </outline>
</glyph>
<glyph name="quoteright" format="1">
  <advance width="267"/>
  <unicode hex="2019"/>
  <outline>
    <contour>
      <point x="146" y="416"/>
      <point x="193" y="478"/>
      <point x="193" y="521" type="curve" smooth="yes"/>
      <point x="193" y="553"/>
      <point x="174" y="573"/>
      <point x="139" y="573" type="curve" smooth="yes"/>
      <point x="108" y="573"/>
      <point x="89" y="558"/>
      <point x="89" y="539" type="curve" smooth="yes"/>
      <point x="89" y="520"/>
      <point x="107" y="509"/>
      <point x="132" y="509" type="curve" smooth="yes"/>
      <point x="147" y="509"/>
      <point x="160" y="511"/>
      <point x="172" y="513" type="curve"/>
      <point x="165" y="469"/>
      <point x="124" y="425"/>
      <point x="74" y="380" type="curve"/>
      <point x="85" y="368" type="line"/>
    </contour>
  </outline>
</glyph>
<glyph name="quotereversed" format="1">
  <advance width="267"/>
  <unicode hex="201B"/>
  <outline>
    <contour>
      <point x="193" y="379" type="line"/>
      <point x="143" y="424"/>
      <point x="102" y="469"/>
      <point x="95" y="513" type="curve"/>
      <point x="107" y="510"/>
      <point x="120" y="508"/>
      <point x="135" y="508" type="curve" smooth="yes"/>
      <point x="160" y="508"/>
      <point x="178" y="520"/>
      <point x="178" y="538" type="curve" smooth="yes"/>
      <point x="178" y="557"/>
      <point x="159" y="572"/>
      <point x="128" y="572" type="curve" smooth="yes"/>
      <point x="93" y="572"/>
      <point x="74" y="552"/>
      <point x="74" y="520" type="curve" smooth="yes"/>
      <point x="74" y="477"/>
      <point x="120" y="415"/>
      <point x="181" y="367" type="curve"/>
    </contour>
  </outline>
</glyph>
<glyph name="quotedblright" format="1">
  <advance width="410"/>
  <unicode hex="201D"/>
  <outline>
    <contour>
      <point x="289" y="416"/>
      <point x="336" y="478"/>
      <point x="336" y="521" type="curve" smooth="yes"/>
      <point x="336" y="553"/>
      <point x="317" y="573"/>
      <point x="282" y="573" type="curve" smooth="yes"/>
      <point x="251" y="573"/>
      <point x="232" y="558"/>
      <point x="232" y="539" type="curve" smooth="yes"/>
      <point x="232" y="520"/>
      <point x="250" y="509"/>
      <point x="275" y="509" type="curve" smooth="yes"/>
      <point x="290" y="509"/>
      <point x="303" y="511"/>
      <point x="315" y="513" type="curve"/>
      <point x="308" y="469"/>
      <point x="267" y="425"/>
      <point x="217" y="380" type="curve"/>
      <point x="228" y="368" type="line"/>
    </contour>
    <contour>
      <point x="146" y="416"/>
      <point x="193" y="478"/>
      <point x="193" y="521" type="curve" smooth="yes"/>
      <point x="193" y="553"/>
      <point x="174" y="573"/>
      <point x="139" y="573" type="curve" smooth="yes"/>
      <point x="108" y="573"/>
      <point x="89" y="558"/>
      <point x="89" y="539" type="curve" smooth="yes"/>
      <point x="89" y="520"/>
      <point x="107" y="509"/>
      <point x="132" y="509" type="curve" smooth="yes"/>
      <point x="147" y="509"/>
      <point x="160" y="511"/>
      <point x="172" y="513" type="curve"/>
      <point x="165" y="469"/>
      <point x="124" y="425"/>
      <point x="74" y="380" type="curve"/>
      <point x="85" y="368" type="line"/>
    </contour>
  </outline>
</glyph>
<glyph name="Euro" format="1">
  <advance width="912"/>
  <unicode hex="20AC"/>
  <outline>
    <contour>
      <point x="638" y="-11"/>
      <point x="752" y="34"/>
      <point x="825" y="104" type="curve"/>
      <point x="809" y="121" type="line"/>
      <point x="745" y="59"/>
      <point x="629" y="12"/>
      <point x="491" y="12" type="curve" smooth="yes"/>
      <point x="334" y="12"/>
      <point x="190" y="86"/>
      <point x="190" y="235" type="curve" smooth="yes"/>
      <point x="190" y="384"/>
      <point x="339" y="457"/>
      <point x="489" y="457" type="curve" smooth="yes"/>
      <point x="618" y="457"/>
      <point x="728" y="423"/>
      <point x="824" y="305" type="curve"/>
      <point x="827" y="306" type="line"/>
      <point x="827" y="470" type="line"/>
      <point x="804" y="470" type="line"/>
      <point x="804" y="341" type="line"/>
      <point x="816" y="341" type="line"/>
      <point x="751" y="423"/>
      <point x="643" y="480"/>
      <point x="489" y="480" type="curve" smooth="yes"/>
      <point x="331" y="480"/>
      <point x="165" y="402"/>
      <point x="165" y="235" type="curve" smooth="yes"/>
      <point x="165" y="68"/>
      <point x="324" y="-11"/>
      <point x="491" y="-11" type="curve" smooth="yes"/>
    </contour>
    <contour>
      <point x="50" y="173" type="line"/>
      <point x="50" y="151" type="line"/>
      <point x="671" y="151" type="line"/>
      <point x="671" y="173" type="line"/>
    </contour>
    <contour>
      <point x="52" y="308" type="line"/>
      <point x="52" y="286" type="line"/>
      <point x="673" y="286" type="line"/>
      <point x="673" y="308" type="line"/>
    </contour>
  </outline>
</glyph>
<glyph name="uni2120" format="1">
  <advance width="897"/>
  <unicode hex="2120"/>
  <outline>
    <contour>
      <point x="276" y="295"/>
      <point x="320" y="315"/>
      <point x="320" y="354" type="curve" smooth="yes"/>
      <point x="320" y="395"/>
      <point x="279" y="411"/>
      <point x="178" y="420" type="curve" smooth="yes"/>
      <point x="87" y="428"/>
      <point x="66" y="444"/>
      <point x="66" y="465" type="curve" smooth="yes"/>
      <point x="66" y="488"/>
      <point x="94" y="501"/>
      <point x="150" y="501" type="curve" smooth="yes"/>
      <point x="217" y="501"/>
      <point x="265" y="474"/>
      <point x="301" y="436" type="curve"/>
      <point x="305" y="437" type="line"/>
      <point x="305" y="520" type="line"/>
      <point x="282" y="520" type="line"/>
      <point x="282" y="460" type="line"/>
      <point x="298" y="460" type="line"/>
      <point x="270" y="494"/>
      <point x="214" y="524"/>
      <point x="150" y="524" type="curve" smooth="yes"/>
      <point x="81" y="524"/>
      <point x="41" y="503"/>
      <point x="41" y="464" type="curve" smooth="yes"/>
      <point x="41" y="426"/>
      <point x="74" y="404"/>
      <point x="177" y="396" type="curve" smooth="yes"/>
      <point x="272" y="389"/>
      <point x="295" y="374"/>
      <point x="295" y="353" type="curve" smooth="yes"/>
      <point x="295" y="332"/>
      <point x="267" y="318"/>
      <point x="216" y="318" type="curve" smooth="yes"/>
      <point x="148" y="318"/>
      <point x="84" y="344"/>
      <point x="46" y="384" type="curve"/>
      <point x="40" y="383" type="line"/>
      <point x="40" y="300" type="line"/>
      <point x="63" y="300" type="line"/>
      <point x="63" y="359" type="line"/>
      <point x="46" y="359" type="line"/>
      <point x="78" y="324"/>
      <point x="149" y="295"/>
      <point x="216" y="295" type="curve" smooth="yes"/>
    </contour>
    <contour>
      <point x="613" y="296" type="line"/>
      <point x="617" y="328" type="line"/>
      <point x="474" y="520" type="line"/>
      <point x="444" y="520" type="line"/>
      <point x="611" y="296" type="line"/>
    </contour>
    <contour>
      <point x="520" y="300" type="line"/>
      <point x="520" y="323" type="line"/>
      <point x="377" y="323" type="line"/>
      <point x="377" y="300" type="line"/>
    </contour>
    <contour>
      <point x="469" y="305" type="line"/>
      <point x="469" y="520" type="line"/>
      <point x="444" y="520" type="line"/>
      <point x="444" y="305" type="line"/>
    </contour>
    <contour>
      <point x="467" y="497" type="line"/>
      <point x="467" y="520" type="line"/>
      <point x="377" y="520" type="line"/>
      <point x="377" y="497" type="line"/>
    </contour>
    <contour>
      <point x="847" y="300" type="line"/>
      <point x="847" y="323" type="line"/>
      <point x="705" y="323" type="line"/>
      <point x="705" y="300" type="line"/>
    </contour>
    <contour>
      <point x="613" y="296" type="line"/>
      <point x="781" y="520" type="line"/>
      <point x="752" y="520" type="line"/>
      <point x="609" y="327" type="line"/>
      <point x="611" y="296" type="line"/>
    </contour>
    <contour>
      <point x="780" y="305" type="line"/>
      <point x="780" y="520" type="line"/>
      <point x="755" y="520" type="line"/>
      <point x="755" y="305" type="line"/>
    </contour>
    <contour>
      <point x="847" y="497" type="line"/>
      <point x="847" y="520" type="line"/>
      <point x="758" y="520" type="line"/>
      <point x="758" y="497" type="line"/>
    </contour>
  </outline>
</glyph>
<glyph name="Q.alt" format="1">
  <advance width="905"/>
  <outline>
    <contour>
      <point x="1356" y="-280"/>
      <point x="1456" y="-227"/>
      <point x="1522" y="-184" type="curve"/>
      <point x="1509" y="-165" type="line"/>
      <point x="1448" y="-206"/>
      <point x="1352" y="-257"/>
      <point x="1212" y="-257" type="curve" smooth="yes"/>
      <point x="1043" y="-257"/>
      <point x="912" y="-177"/>
      <point x="716" y="20" type="curve" smooth="yes"/>
      <point x="552" y="185"/>
      <point x="428" y="265"/>
      <point x="180" y="265" type="curve" smooth="yes"/>
      <point x="83" y="265" type="line"/>
      <point x="83" y="242" type="line"/>
      <point x="180" y="242" type="line" smooth="yes"/>
      <point x="407" y="242"/>
      <point x="527" y="174"/>
      <point x="681" y="19" type="curve" smooth="yes"/>
      <point x="883" y="-185"/>
      <point x="1022" y="-280"/>
      <point x="1212" y="-280" type="curve" smooth="yes"/>
    </contour>
    <contour>
      <point x="669" y="-10"/>
      <point x="836" y="88"/>
      <point x="836" y="258" type="curve"/>
      <point x="836" y="427"/>
      <point x="669" y="526"/>
      <point x="453" y="526" type="curve"/>
      <point x="237" y="526"/>
      <point x="70" y="427"/>
      <point x="70" y="258" type="curve"/>
      <point x="70" y="88"/>
      <point x="237" y="-10"/>
      <point x="453" y="-10" type="curve"/>
    </contour>
    <contour>
      <point x="247" y="13"/>
      <point x="95" y="106"/>
      <point x="95" y="258" type="curve"/>
      <point x="95" y="410"/>
      <point x="247" y="503"/>
      <point x="453" y="503" type="curve"/>
      <point x="658" y="503"/>
      <point x="811" y="410"/>
      <point x="811" y="258" type="curve"/>
      <point x="811" y="106"/>
      <point x="658" y="13"/>
      <point x="453" y="13" type="curve"/>
    </contour>
    <contour>
      <point x="451" y="530" type="move" name="top"/>
    </contour>
    <contour>
      <point x="451" y="-10" type="move" name="bottom"/>
    </contour>
  </outline>
</glyph>
<glyph name="R.alt" format="1">
  <advance width="926"/>
  <outline>
    <contour>
      <point x="1413" y="-280"/>
      <point x="1508" y="-214"/>
      <point x="1566" y="-176" type="curve"/>
      <point x="1554" y="-156" type="line"/>
      <point x="1501" y="-192"/>
      <point x="1409" y="-257"/>
      <point x="1246" y="-257" type="curve" smooth="yes"/>
      <point x="1052" y="-257"/>
      <point x="914" y="-143"/>
      <point x="795" y="13" type="curve" smooth="yes"/>
      <point x="660" y="189"/>
      <point x="593" y="247"/>
      <point x="405" y="247" type="curve" smooth="yes"/>
      <point x="251" y="247" type="line"/>
      <point x="252" y="233" type="line"/>
      <point x="403" y="233" type="line" smooth="yes"/>
      <point x="566" y="233"/>
      <point x="627" y="187"/>
      <point x="762" y="12" type="curve" smooth="yes"/>
      <point x="885" y="-147"/>
      <point x="1031" y="-280"/>
      <point x="1246" y="-280" type="curve" smooth="yes"/>
    </contour>
    <contour>
      <point x="445" y="0" type="line"/>
      <point x="445" y="23" type="line"/>
      <point x="56" y="23" type="line"/>
      <point x="56" y="0" type="line"/>
    </contour>
    <contour>
      <point x="263" y="18" type="line"/>
      <point x="263" y="505" type="line"/>
      <point x="238" y="505" type="line"/>
      <point x="238" y="18" type="line"/>
    </contour>
    <contour>
      <point x="631" y="234" type="line" smooth="yes"/>
      <point x="755" y="234"/>
      <point x="814" y="303"/>
      <point x="814" y="378" type="curve" smooth="yes"/>
      <point x="814" y="462"/>
      <point x="754" y="520"/>
      <point x="631" y="520" type="curve" smooth="yes"/>
      <point x="56" y="520" type="line"/>
      <point x="56" y="497" type="line"/>
      <point x="631" y="497" type="line" smooth="yes"/>
      <point x="740" y="497"/>
      <point x="789" y="446"/>
      <point x="789" y="378" type="curve" smooth="yes"/>
      <point x="789" y="311"/>
      <point x="737" y="255"/>
      <point x="631" y="255" type="curve" smooth="yes"/>
      <point x="258" y="255" type="line"/>
      <point x="258" y="234" type="line"/>
    </contour>
    <contour>
      <point x="447" y="520" type="move" name="top"/>
    </contour>
    <contour>
      <point x="447" y="0" type="move" name="bottom"/>
    </contour>
  </outline>
</glyph>
<glyph name="ampersand_alt1" format="1">
  <advance width="1041"/>
  <outline>
    <contour>
      <point x="840" y="104"/>
      <point x="855" y="117"/>
      <point x="879" y="117" type="curve" smooth="yes"/>
      <point x="926" y="117"/>
      <point x="1000" y="72"/>
      <point x="1000" y="-22" type="curve" smooth="yes"/>
      <point x="1000" y="-126"/>
      <point x="880" y="-206"/>
      <point x="757" y="-206" type="curve" smooth="yes"/>
      <point x="480" y="-206"/>
      <point x="281" y="113"/>
      <point x="281" y="333" type="curve" smooth="yes"/>
      <point x="281" y="438"/>
      <point x="342" y="497"/>
      <point x="410" y="497" type="curve" smooth="yes"/>
      <point x="466" y="497"/>
      <point x="499" y="461"/>
      <point x="499" y="416" type="curve" smooth="yes"/>
      <point x="499" y="344"/>
      <point x="438" y="299"/>
      <point x="309" y="277" type="curve" smooth="yes"/>
      <point x="113" y="244"/>
      <point x="21" y="192"/>
      <point x="21" y="95" type="curve" smooth="yes"/>
      <point x="21" y="15"/>
      <point x="93" y="-44"/>
      <point x="191" y="-44" type="curve" smooth="yes"/>
      <point x="370" y="-44"/>
      <point x="499" y="79"/>
      <point x="599" y="172" type="curve" smooth="yes"/>
      <point x="685" y="252"/>
      <point x="767" y="335"/>
      <point x="867" y="335" type="curve"/>
      <point x="935" y="335"/>
      <point x="1002" y="299"/>
      <point x="1004" y="215" type="curve"/>
      <point x="1004" y="132"/>
      <point x="920" y="59"/>
      <point x="880" y="59" type="curve" smooth="yes"/>
      <point x="860" y="59"/>
      <point x="840" y="69"/>
      <point x="840" y="88" type="curve" smooth="yes"/>
    </contour>
    <contour>
      <point x="819" y="59"/>
      <point x="846" y="41"/>
      <point x="879" y="41" type="curve" smooth="yes"/>
      <point x="937" y="41"/>
      <point x="1027" y="111"/>
      <point x="1027" y="216" type="curve"/>
      <point x="1021" y="305"/>
      <point x="955" y="357"/>
      <point x="867" y="357" type="curve"/>
      <point x="753" y="357"/>
      <point x="667" y="269"/>
      <point x="584" y="190" type="curve" smooth="yes"/>
      <point x="486" y="96"/>
      <point x="363" y="-22"/>
      <point x="191" y="-22" type="curve" smooth="yes"/>
      <point x="93" y="-22"/>
      <point x="45" y="29"/>
      <point x="45" y="95" type="curve" smooth="yes"/>
      <point x="45" y="179"/>
      <point x="130" y="221"/>
      <point x="314" y="255" type="curve" smooth="yes"/>
      <point x="455" y="280"/>
      <point x="521" y="328"/>
      <point x="521" y="420" type="curve" smooth="yes"/>
      <point x="521" y="470"/>
      <point x="482" y="517"/>
      <point x="410" y="517" type="curve" smooth="yes"/>
      <point x="319" y="517"/>
      <point x="258" y="438"/>
      <point x="258" y="327" type="curve" smooth="yes"/>
      <point x="258" y="89"/>
      <point x="470" y="-228"/>
      <point x="757" y="-228" type="curve" smooth="yes"/>
      <point x="894" y="-228"/>
      <point x="1024" y="-143"/>
      <point x="1024" y="-21" type="curve"/>
      <point x="1024" y="79"/>
      <point x="945" y="135"/>
      <point x="879" y="135" type="curve" smooth="yes"/>
      <point x="840" y="135"/>
      <point x="819" y="113"/>
      <point x="819" y="87" type="curve" smooth="yes"/>
    </contour>
  </outline>
</glyph>
<glyph name="germandbls.001" format="1">
  <advance width="819"/>
  <outline>
    <contour>
      <point x="40" y="0" type="line"/>
      <point x="210" y="0" type="line"/>
      <point x="210" y="23" type="line"/>
      <point x="40" y="23" type="line"/>
    </contour>
    <contour>
      <point x="209" y="357" type="line"/>
      <point x="40" y="357" type="line"/>
      <point x="40" y="334" type="line"/>
      <point x="209" y="334" type="line"/>
    </contour>
    <contour>
      <point x="617" y="270"/>
      <point x="714" y="322"/>
      <point x="714" y="412" type="curve" smooth="yes"/>
      <point x="714" y="516"/>
      <point x="582" y="585"/>
      <point x="430" y="585" type="curve" smooth="yes"/>
      <point x="265" y="585"/>
      <point x="200" y="504"/>
      <point x="200" y="406" type="curve" smooth="yes"/>
      <point x="200" y="0" type="line"/>
      <point x="225" y="0" type="line"/>
      <point x="225" y="408" type="line" smooth="yes"/>
      <point x="225" y="495"/>
      <point x="282" y="562"/>
      <point x="428" y="562" type="curve" smooth="yes"/>
      <point x="569" y="562"/>
      <point x="689" y="504"/>
      <point x="689" y="412" type="curve" smooth="yes"/>
      <point x="689" y="341"/>
      <point x="617" y="294"/>
      <point x="477" y="259" type="curve"/>
      <point x="477" y="243" type="line"/>
      <point x="638" y="222"/>
      <point x="760" y="190"/>
      <point x="760" y="103" type="curve" smooth="yes"/>
      <point x="760" y="37"/>
      <point x="700" y="3"/>
      <point x="636" y="3" type="curve" smooth="yes"/>
      <point x="537" y="3"/>
      <point x="433" y="64"/>
      <point x="347" y="168" type="curve"/>
      <point x="347" y="0" type="line"/>
      <point x="370" y="0" type="line"/>
      <point x="370" y="130" type="line"/>
      <point x="355" y="130" type="line"/>
      <point x="418" y="55"/>
      <point x="523" y="-20"/>
      <point x="635" y="-20" type="curve" smooth="yes"/>
      <point x="716" y="-20"/>
      <point x="784" y="24"/>
      <point x="784" y="103" type="curve" smooth="yes"/>
      <point x="784" y="207"/>
      <point x="638" y="248"/>
      <point x="493" y="253" type="curve"/>
      <point x="493" y="248" type="line"/>
    </contour>
    <contour>
      <point x="400" y="357" type="move" name="top"/>
    </contour>
    <contour>
      <point x="400" y="0" type="move" name="bottom"/>
    </contour>
  </outline>
</glyph>
<glyph name="k.alt" format="1">
  <advance width="826"/>
  <outline>
    <contour>
      <point x="669" y="348" type="line"/>
      <point x="625" y="348" type="line"/>
      <point x="212" y="104" type="line"/>
      <point x="212" y="78" type="line"/>
    </contour>
    <contour>
      <point x="404" y="0" type="line"/>
      <point x="404" y="23" type="line"/>
      <point x="15" y="23" type="line"/>
      <point x="15" y="0" type="line"/>
    </contour>
    <contour>
      <point x="222" y="0" type="line"/>
      <point x="222" y="520" type="line"/>
      <point x="197" y="520" type="line"/>
      <point x="197" y="0" type="line"/>
    </contour>
    <contour>
      <point x="771" y="0" type="line"/>
      <point x="771" y="23" type="line"/>
      <point x="485" y="23" type="line"/>
      <point x="485" y="0" type="line"/>
    </contour>
    <contour>
      <point x="679" y="6" type="line"/>
      <point x="423" y="201" type="line"/>
      <point x="397" y="191" type="line"/>
      <point x="644" y="6" type="line"/>
    </contour>
    <contour>
      <point x="222" y="497" type="line"/>
      <point x="222" y="520" type="line"/>
      <point x="15" y="520" type="line"/>
      <point x="15" y="497" type="line"/>
    </contour>
    <contour>
      <point x="751" y="334" type="line"/>
      <point x="751" y="357" type="line"/>
      <point x="473" y="357" type="line"/>
      <point x="473" y="334" type="line"/>
    </contour>
    <contour>
      <point x="448" y="367" type="move" name="top"/>
    </contour>
    <contour>
      <point x="448" y="0" type="move" name="bottom"/>
    </contour>
  </outline>
</glyph>
<glyph name="t.alt" format="1">
  <advance width="481"/>
  <outline>
    <contour>
      <point x="383" y="357" type="line"/>
      <point x="45" y="357" type="line"/>
      <point x="45" y="334" type="line"/>
      <point x="383" y="334" type="line"/>
    </contour>
    <contour>
      <point x="410" y="53" type="line"/>
      <point x="373" y="33"/>
      <point x="315" y="13"/>
      <point x="260" y="13" type="curve" smooth="yes"/>
      <point x="198" y="13"/>
      <point x="156" y="41"/>
      <point x="156" y="123" type="curve"/>
      <point x="156" y="205"/>
      <point x="194" y="321"/>
      <point x="199" y="340" type="curve"/>
      <point x="200" y="347" type="line"/>
      <point x="200" y="456" type="line"/>
      <point x="175" y="456" type="line"/>
      <point x="175" y="348" type="line"/>
      <point x="176" y="342" type="line"/>
      <point x="170" y="321"/>
      <point x="131" y="206"/>
      <point x="131" y="123" type="curve"/>
      <point x="131" y="27"/>
      <point x="181" y="-10"/>
      <point x="261" y="-10" type="curve" smooth="yes"/>
      <point x="318" y="-10"/>
      <point x="378" y="11"/>
      <point x="418" y="31" type="curve"/>
    </contour>
    <contour>
      <point x="266" y="-10" type="move" name="bottom"/>
    </contour>
    <contour>
      <point x="226" y="456" type="move" name="top"/>
    </contour>
    <contour>
      <point x="319" y="419" type="move" name="topright"/>
    </contour>
    <contour>
      <point x="226" y="179" type="move" name="center"/>
    </contour>
  </outline>
</glyph>
<glyph name="u.alt" format="1">
  <advance width="861"/>
  <outline>
    <contour>
      <point x="482" y="-10"/>
      <point x="577" y="41"/>
      <point x="677" y="89" type="curve"/>
      <point x="677" y="111" type="line"/>
      <point x="577" y="62"/>
      <point x="467" y="13"/>
      <point x="368" y="13" type="curve"/>
      <point x="258" y="13"/>
      <point x="197" y="60"/>
      <point x="197" y="166" type="curve"/>
      <point x="197" y="357" type="line"/>
      <point x="172" y="357" type="line"/>
      <point x="172" y="166" type="line"/>
      <point x="172" y="40"/>
      <point x="248" y="-9"/>
      <point x="368" y="-10" type="curve"/>
    </contour>
    <contour>
      <point x="184" y="334" type="line"/>
      <point x="184" y="357" type="line"/>
      <point x="0" y="357" type="line"/>
      <point x="0" y="334" type="line"/>
    </contour>
    <contour>
      <point x="823" y="-10"/>
      <point x="846" y="49"/>
      <point x="846" y="98" type="curve" smooth="yes"/>
      <point x="846" y="112" type="line"/>
      <point x="821" y="112" type="line"/>
      <point x="821" y="98" type="line" smooth="yes"/>
      <point x="821" y="48"/>
      <point x="800" y="13"/>
      <point x="758" y="13" type="curve" smooth="yes"/>
      <point x="712" y="13"/>
      <point x="691" y="48"/>
      <point x="691" y="108" type="curve"/>
      <point x="691" y="357" type="line"/>
      <point x="666" y="357" type="line"/>
      <point x="666" y="108" type="line"/>
      <point x="666" y="39"/>
      <point x="693" y="-10"/>
      <point x="756" y="-10" type="curve" smooth="yes"/>
    </contour>
    <contour>
      <point x="684" y="334" type="line"/>
      <point x="684" y="357" type="line"/>
      <point x="506" y="357" type="line"/>
      <point x="506" y="334" type="line"/>
    </contour>
    <contour>
      <point x="779" y="-4" type="move" name="ogonek"/>
    </contour>
    <contour>
      <point x="431" y="357" type="move" name="top"/>
    </contour>
    <contour>
      <point x="846" y="357" type="move" name="topright"/>
    </contour>
    <contour>
      <point x="431" y="-20" type="move" name="bottom"/>
    </contour>
  </outline>
</glyph>
<glyph name="z.alt" format="1">
  <advance width="687"/>
  <outline>
    <contour>
      <point x="631" y="0" type="line"/>
      <point x="631" y="183" type="line"/>
      <point x="608" y="183" type="line"/>
      <point x="608" y="23" type="line"/>
      <point x="148" y="23" type="line"/>
      <point x="125" y="19" type="line"/>
      <point x="125" y="20" type="line"/>
      <point x="145" y="30" type="line"/>
      <point x="632" y="342" type="line"/>
      <point x="632" y="355" type="line"/>
      <point x="75" y="355" type="line"/>
      <point x="75" y="172" type="line"/>
      <point x="98" y="172" type="line"/>
      <point x="98" y="332" type="line"/>
      <point x="554" y="332" type="line"/>
      <point x="577" y="336" type="line"/>
      <point x="577" y="335" type="line"/>
      <point x="557" y="325" type="line"/>
      <point x="69" y="13" type="line"/>
      <point x="69" y="0" type="line"/>
    </contour>
    <contour>
      <point x="344" y="367" type="move" name="top"/>
    </contour>
    <contour>
      <point x="346" y="-10" type="move" name="bottom"/>
    </contour>
  </outline>
</glyph>
